<svg xmlns="http://www.w3.org/2000/svg" viewBox="0 0 256 256"><defs><style>.cls-1{fill:#1d384d;}</style></defs><title>abacus</title><g id="icons_without_caption" data-name="icons without caption"><g id="ABACUS"><path class="cls-1" d="M65.59,55.43V200.57H89.18V55.43Zm4,141.14V59.43H85.18V196.57Z"/><path class="cls-1" d="M165.65,55.43V200.57h23.59V55.43Zm4,141.14V59.43h15.59V196.57Z"/><rect class="cls-1" x="86.38" y="111.31" width="13.27" height="4"/><rect class="cls-1" x="108.44" y="111.31" width="22.46" height="4"/><rect class="cls-1" x="139.69" y="111.31" width="8.96" height="4"/><rect class="cls-1" x="157.44" y="111.31" width="10.21" height="4"/><rect class="cls-1" x="86.38" y="142.11" width="28.73" height="4"/><rect class="cls-1" x="123.9" y="142.11" width="11.96" height="4"/><rect class="cls-1" x="144.65" y="142.11" width="23" height="4"/><rect class="cls-1" x="86.38" y="172.91" width="13.27" height="4"/><rect class="cls-1" x="108.44" y="172.91" width="9.67" height="4"/><rect class="cls-1" x="126.9" y="172.91" width="21.75" height="4"/><rect class="cls-1" x="157.44" y="172.91" width="10.21" height="4"/><rect class="cls-1" x="55.54" y="196.57" width="46.02" height="4"/><rect class="cls-1" x="154.44" y="196.57" width="46.02" height="4"/><path class="cls-1" d="M104.72,102.28h-1.35A7.73,7.73,0,0,0,95.65,110v6.63a7.74,7.74,0,0,0,7.72,7.72h1.35a7.73,7.73,0,0,0,7.72-7.72V110A7.72,7.72,0,0,0,104.72,102.28Zm3.72,14.35a3.73,3.73,0,0,1-3.72,3.72h-1.35a3.73,3.73,0,0,1-3.72-3.72V110a3.73,3.73,0,0,1,3.72-3.72h1.35a3.73,3.73,0,0,1,3.72,3.72Z"/><path class="cls-1" d="M136,102.28h-1.35A7.73,7.73,0,0,0,126.9,110v6.63a7.74,7.74,0,0,0,7.72,7.72H136a7.73,7.73,0,0,0,7.72-7.72V110A7.72,7.72,0,0,0,136,102.28Zm3.72,14.35a3.73,3.73,0,0,1-3.72,3.72h-1.35a3.73,3.73,0,0,1-3.72-3.72V110a3.73,3.73,0,0,1,3.72-3.72H136a3.73,3.73,0,0,1,3.72,3.72Z"/><path class="cls-1" d="M153.72,102.28h-1.35a7.73,7.73,0,0,0-7.72,7.72v6.63a7.74,7.74,0,0,0,7.72,7.72h1.35a7.73,7.73,0,0,0,7.72-7.72V110A7.72,7.72,0,0,0,153.72,102.28Zm3.72,14.35a3.73,3.73,0,0,1-3.72,3.72h-1.35a3.73,3.73,0,0,1-3.72-3.72V110a3.73,3.73,0,0,1,3.72-3.72h1.35a3.73,3.73,0,0,1,3.72,3.72Z"/><path class="cls-1" d="M120.18,133.08h-1.35a7.73,7.73,0,0,0-7.72,7.72v6.63a7.74,7.74,0,0,0,7.72,7.72h1.35a7.73,7.73,0,0,0,7.72-7.72V140.8A7.72,7.72,0,0,0,120.18,133.08Zm3.72,14.35a3.73,3.73,0,0,1-3.72,3.72h-1.35a3.73,3.73,0,0,1-3.72-3.72V140.8a3.73,3.73,0,0,1,3.72-3.72h1.35a3.73,3.73,0,0,1,3.72,3.72Z"/><path class="cls-1" d="M140.93,133.08h-1.35a7.73,7.73,0,0,0-7.72,7.72v6.63a7.74,7.74,0,0,0,7.72,7.72h1.35a7.73,7.73,0,0,0,7.72-7.72V140.8A7.72,7.72,0,0,0,140.93,133.08Zm3.72,14.35a3.73,3.73,0,0,1-3.72,3.72h-1.35a3.73,3.73,0,0,1-3.72-3.72V140.8a3.73,3.73,0,0,1,3.72-3.72h1.35a3.73,3.73,0,0,1,3.72,3.72Z"/><rect class="cls-1" x="86.38" y="80.5" width="15.27" height="4"/><rect class="cls-1" x="110.44" y="80.5" width="25.42" height="4"/><rect class="cls-1" x="144.65" y="80.5" width="23" height="4"/><path class="cls-1" d="M106.72,71.46h-1.35a7.74,7.74,0,0,0-7.72,7.73v6.62a7.73,7.73,0,0,0,7.72,7.72h1.35a7.72,7.72,0,0,0,7.72-7.72V79.19A7.73,7.73,0,0,0,106.72,71.46Zm3.72,14.35a3.72,3.72,0,0,1-3.72,3.72h-1.35a3.72,3.72,0,0,1-3.72-3.72V79.19a3.73,3.73,0,0,1,3.72-3.73h1.35a3.73,3.73,0,0,1,3.72,3.73Z"/><path class="cls-1" d="M140.93,71.46h-1.35a7.74,7.74,0,0,0-7.72,7.73v6.62a7.73,7.73,0,0,0,7.72,7.72h1.35a7.72,7.72,0,0,0,7.72-7.72V79.19A7.73,7.73,0,0,0,140.93,71.46Zm3.72,14.35a3.72,3.72,0,0,1-3.72,3.72h-1.35a3.72,3.72,0,0,1-3.72-3.72V79.19a3.73,3.73,0,0,1,3.72-3.73h1.35a3.73,3.73,0,0,1,3.72,3.73Z"/><path class="cls-1" d="M104.72,163.88h-1.35a7.73,7.73,0,0,0-7.72,7.72v6.63a7.74,7.74,0,0,0,7.72,7.72h1.35a7.73,7.73,0,0,0,7.72-7.72V171.6A7.72,7.72,0,0,0,104.72,163.88Zm3.72,14.35a3.73,3.73,0,0,1-3.72,3.72h-1.35a3.73,3.73,0,0,1-3.72-3.72V171.6a3.73,3.73,0,0,1,3.72-3.72h1.35a3.73,3.73,0,0,1,3.72,3.72Z"/><path class="cls-1" d="M123.18,163.88h-1.35a7.73,7.73,0,0,0-7.72,7.72v6.63a7.74,7.74,0,0,0,7.72,7.72h1.35a7.73,7.73,0,0,0,7.72-7.72V171.6A7.72,7.72,0,0,0,123.18,163.88Zm3.72,14.35a3.73,3.73,0,0,1-3.72,3.72h-1.35a3.73,3.73,0,0,1-3.72-3.72V171.6a3.73,3.73,0,0,1,3.72-3.72h1.35a3.73,3.73,0,0,1,3.72,3.72Z"/><path class="cls-1" d="M153.72,163.88h-1.35a7.73,7.73,0,0,0-7.72,7.72v6.63a7.74,7.74,0,0,0,7.72,7.72h1.35a7.73,7.73,0,0,0,7.72-7.72V171.6A7.72,7.72,0,0,0,153.72,163.88Zm3.72,14.35a3.73,3.73,0,0,1-3.72,3.72h-1.35a3.73,3.73,0,0,1-3.72-3.72V171.6a3.73,3.73,0,0,1,3.72-3.72h1.35a3.73,3.73,0,0,1,3.72,3.72Z"/></g></g></svg>