<svg xmlns="http://www.w3.org/2000/svg" viewBox="0 0 256 256"><defs><style>.cls-1{fill:#1d384d;}</style></defs><title>assets</title><g id="icons_without_caption" data-name="icons without caption"><g id="ASSETS"><path class="cls-1" d="M211.48,168H215l0-114.22h-4v79.61a5.92,5.92,0,0,1,0,8.16ZM110.78,53.76v52.7c1.33-.16,2.66-.3,4-.42V53.76Z"/><path class="cls-1" d="M104.33,41.14V57.76H221.54V41.14ZM217.54,53.76H108.33V45.14H217.54Z"/><path class="cls-1" d="M128.43,70V89.87h71V70Zm67,15.86h-63V74h63Z"/><rect class="cls-1" x="145.05" y="72" width="4" height="15.86"/><rect class="cls-1" x="162.03" y="72" width="4" height="15.86"/><rect class="cls-1" x="179" y="72" width="4" height="15.86"/><path class="cls-1" d="M128.43,102.38v2.89c5.54-.13,11.09,0,16.62.39,1.33.08,2.67.18,4,.31s2.76.25,4.13.41h42.3v11.86H177.26l1.83,4h20.39V102.38Z"/><path class="cls-1" d="M149.05,104.38V106c-1.33-.13-2.67-.23-4-.31v-1.28Z"/><rect class="cls-1" x="179" y="104.38" width="4" height="15.86"/><path class="cls-1" d="M75.74,73.41c-4.85-1.59-8.37-2.92-8.37-6.55,0-3.4,2.84-5.3,6.89-5.3A18.06,18.06,0,0,1,84.05,65L87,61.39a23.62,23.62,0,0,0-9.9-4.23v-7.6H73.18v7.35c-7.09.34-11,4.62-11,10.26,0,6.92,5.79,8.91,12.14,10.95C79.65,79.79,83,81.18,83,85.35c0,3.66-3.18,5.79-7.46,5.79a16.55,16.55,0,0,1-11.21-4.82l-3,3.63a20.22,20.22,0,0,0,11.88,5.7v7.09h3.89v-7C84.13,95.14,88.3,91,88.3,85,88.3,77.58,82.88,75.68,75.74,73.41Z"/><path class="cls-1" d="M42.18,104.56c-2.59-.85-4.47-1.57-4.47-3.51s1.51-2.83,3.68-2.83A9.69,9.69,0,0,1,46.63,100l1.56-1.92a12.65,12.65,0,0,0-5.3-2.26V91.8H40.82v3.93c-3.8.18-5.91,2.47-5.91,5.49,0,3.7,3.1,4.76,6.5,5.86,2.86.89,4.65,1.63,4.65,3.86,0,2-1.7,3.1-4,3.1a8.83,8.83,0,0,1-6-2.58l-1.62,1.94a10.8,10.8,0,0,0,6.36,3v3.79h2.07v-3.76c3.78-.3,6-2.53,6-5.7C48.9,106.79,46,105.77,42.18,104.56Z"/><path class="cls-1" d="M83,186.37v19.5a5,5,0,0,1-5,5H63a5,5,0,0,1-5-5v-25.4a17.51,17.51,0,0,1-3.76-4.66A9,9,0,0,0,54,177.9v28a9,9,0,0,0,9,9H78a9,9,0,0,0,9-9v-19.5Z"/><path class="cls-1" d="M210.45,175.8a17.81,17.81,0,0,1-3.75,4.65v25.42a5,5,0,0,1-5,5h-15a5,5,0,0,1-5-5v-19.5h-4v19.5a9,9,0,0,0,9,9h15a9,9,0,0,0,9-9v-28A9,9,0,0,0,210.45,175.8Z"/><path class="cls-1" d="M67.8,127.51H58.21a9.94,9.94,0,0,0,0,19.88H67.8a10.51,10.51,0,0,0,2-.19,10,10,0,0,0,6-3.81c.15-.21.3-.42.43-.64a9.43,9.43,0,0,0,1.11-2.41,9.91,9.91,0,0,0-.85-7.76A9.94,9.94,0,0,0,67.8,127.51ZM73.54,139a5.64,5.64,0,0,1-.86,1.86,5.93,5.93,0,0,1-4.88,2.57H58.21a5.94,5.94,0,0,1,0-11.88H67.8a6,6,0,0,1,5.94,5.94A5.79,5.79,0,0,1,73.54,139Z"/><path class="cls-1" d="M215.08,132a9.94,9.94,0,0,0-4-3.52,9.83,9.83,0,0,0-4.3-1h-9.59a9.94,9.94,0,0,0-2.29,19.61,9.57,9.57,0,0,0,2.29.27h9.59a9.83,9.83,0,0,0,4.3-1,9.94,9.94,0,0,0,4-3.52,9.89,9.89,0,0,0,0-10.88Zm-4,9.52a5.92,5.92,0,0,1-4.3,1.86h-9.59a5.94,5.94,0,0,1,0-11.88h9.59a5.93,5.93,0,0,1,4.3,10Z"/><path class="cls-1" d="M75.77,143.39h.14l.29-.64C76.07,143,75.92,143.18,75.77,143.39Zm104.57-28a20,20,0,0,0-1.34-2.45,20.32,20.32,0,0,0-6.74-6.53H153.18q4,.42,7.89,1l.52.08.31,0H162a16.14,16.14,0,0,1,4,.54,16.31,16.31,0,0,1,10.67,9l.56,1.22h4.4Zm-104.57,28h.14l.29-.64C76.07,143,75.92,143.18,75.77,143.39Zm104.57-28a20,20,0,0,0-1.34-2.45,20.32,20.32,0,0,0-6.74-6.53H153.18q4,.42,7.89,1l.52.08.31,0H162a16.14,16.14,0,0,1,4,.54,16.31,16.31,0,0,1,10.67,9l.56,1.22h4.4Zm-104.57,28h.14l.29-.64C76.07,143,75.92,143.18,75.77,143.39Zm104.57-28a20,20,0,0,0-1.34-2.45,20.32,20.32,0,0,0-6.74-6.53H153.18q4,.42,7.89,1l.52.08.31,0H162a16.14,16.14,0,0,1,4,.54,16.31,16.31,0,0,1,10.67,9l.56,1.22h4.4Zm-104.57,28h.14l.29-.64C76.07,143,75.92,143.18,75.77,143.39Zm104.57-28a20,20,0,0,0-1.34-2.45,20.32,20.32,0,0,0-6.74-6.53H153.18q4,.42,7.89,1l.52.08.31,0H162a16.14,16.14,0,0,1,4,.54,16.31,16.31,0,0,1,10.67,9l.56,1.22h4.4Zm-104.57,28h.14l.29-.64C76.07,143,75.92,143.18,75.77,143.39Zm104.57-28a20,20,0,0,0-1.34-2.45,20.32,20.32,0,0,0-6.74-6.53H153.18q4,.42,7.89,1l.52.08.31,0H162a16.14,16.14,0,0,1,4,.54,16.31,16.31,0,0,1,10.67,9l.56,1.22h4.4Zm-104.57,28h.14l.29-.64C76.07,143,75.92,143.18,75.77,143.39Zm104.57-28a20,20,0,0,0-1.34-2.45,20.32,20.32,0,0,0-6.74-6.53H153.18q4,.42,7.89,1l.52.08.31,0H162a16.14,16.14,0,0,1,4,.54,16.31,16.31,0,0,1,10.67,9l.56,1.22h4.4Zm-104.43,28,.29-.64c-.13.22-.28.43-.43.64Zm119,3.73-1.56-3.39-5-10.85-4.88-10.64-.91-2-.92-2-1.32-2.88a20,20,0,0,0-1.34-2.45,20.3,20.3,0,0,0-16.94-9.38l-.38-.06q-4.14-.65-8.31-1.09a191.41,191.41,0,0,0-38.59-.35c-1.33.11-2.67.25-4,.41q-4.1.45-8.15,1.09a20.32,20.32,0,0,0-18.27,11.83l-7.9,17.22L73.54,139l-.86,1.86-1.33,2.91-1.59,3.47-.09.19H195Zm-119-3.73.29-.64,1.11-2.41L88,117a16.34,16.34,0,0,1,14.8-9.49l.32,0c2.55-.4,5.1-.75,7.67-1,1.33-.16,2.66-.3,4-.42,4.53-.43,9.09-.69,13.65-.77,5.54-.13,11.09,0,16.62.39,1.33.08,2.67.18,4,.31s2.76.25,4.13.41q4,.42,7.89,1l.52.08.31,0H162a16.14,16.14,0,0,1,4,.54,16.31,16.31,0,0,1,10.67,9l.56,1.22,1.83,4,9.7,21.15Zm-.14,0h.14l.29-.64C76.07,143,75.92,143.18,75.77,143.39Zm104.57-28a20,20,0,0,0-1.34-2.45,20.32,20.32,0,0,0-6.74-6.53H153.18q4,.42,7.89,1l.52.08.31,0H162a16.14,16.14,0,0,1,4,.54,16.31,16.31,0,0,1,10.67,9l.56,1.22h4.4Zm-104.57,28h.14l.29-.64C76.07,143,75.92,143.18,75.77,143.39Zm104.57-28a20,20,0,0,0-1.34-2.45,20.32,20.32,0,0,0-6.74-6.53H153.18q4,.42,7.89,1l.52.08.31,0H162a16.14,16.14,0,0,1,4,.54,16.31,16.31,0,0,1,10.67,9l.56,1.22h4.4Zm-104.57,28h.14l.29-.64C76.07,143,75.92,143.18,75.77,143.39Zm104.57-28a20,20,0,0,0-1.34-2.45,20.32,20.32,0,0,0-6.74-6.53H153.18q4,.42,7.89,1l.52.08.31,0H162a16.14,16.14,0,0,1,4,.54,16.31,16.31,0,0,1,10.67,9l.56,1.22h4.4Zm-104.57,28h.14l.29-.64C76.07,143,75.92,143.18,75.77,143.39Zm104.57-28a20,20,0,0,0-1.34-2.45,20.32,20.32,0,0,0-6.74-6.53H153.18q4,.42,7.89,1l.52.08.31,0H162a16.14,16.14,0,0,1,4,.54,16.31,16.31,0,0,1,10.67,9l.56,1.22h4.4Zm-104.57,28h.14l.29-.64C76.07,143,75.92,143.18,75.77,143.39Zm104.57-28a20,20,0,0,0-1.34-2.45,20.32,20.32,0,0,0-6.74-6.53H153.18q4,.42,7.89,1l.52.08.31,0H162a16.14,16.14,0,0,1,4,.54,16.31,16.31,0,0,1,10.67,9l.56,1.22h4.4Zm-104.57,28h.14l.29-.64C76.07,143,75.92,143.18,75.77,143.39Zm104.57-28a20,20,0,0,0-1.34-2.45,20.32,20.32,0,0,0-6.74-6.53H153.18q4,.42,7.89,1l.52.08.31,0H162a16.14,16.14,0,0,1,4,.54,16.31,16.31,0,0,1,10.67,9l.56,1.22h4.4Zm-104.57,28h.14l.29-.64C76.07,143,75.92,143.18,75.77,143.39Z"/><path class="cls-1" d="M74.83,156.51h-.29a11.78,11.78,0,0,0-4.45,1,12,12,0,0,0-7.26,11c0,.13,0,.26,0,.39a11.56,11.56,0,0,0,.83,4,12,12,0,0,0,21.88,1l.24-.5a11.79,11.79,0,0,0,1-3.5,12.66,12.66,0,0,0,.08-1.39A12,12,0,0,0,74.83,156.51Zm7.82,13.69a8,8,0,0,1-15.81-1.3c0-.13,0-.26,0-.39a8,8,0,0,1,16,0A7.88,7.88,0,0,1,82.65,170.2Z"/><path class="cls-1" d="M196,158.26a11.64,11.64,0,0,0-4.57-1.63,11.38,11.38,0,0,0-1.66-.12,12,12,0,0,0-12,12,12.64,12.64,0,0,0,.08,1.39,11.84,11.84,0,0,0,1,3.56,3.53,3.53,0,0,0,.21.44,11.83,11.83,0,0,0,2.64,3.47,12.17,12.17,0,0,0,1.32,1,12,12,0,0,0,17.9-5.52,11.56,11.56,0,0,0,.83-4c0-.13,0-.26,0-.39A12,12,0,0,0,196,158.26Zm1.75,10.64A8,8,0,0,1,182,170.24a8.27,8.27,0,0,1-.19-1.73,8,8,0,1,1,16,0C197.79,168.64,197.79,168.77,197.78,168.9Z"/><rect class="cls-1" x="83" y="196.32" width="98.7" height="4"/><path class="cls-1" d="M215.08,166a25.73,25.73,0,0,0-4-10.69,26.15,26.15,0,0,0-17.74-11.56,25.33,25.33,0,0,0-4.11-.34H75.53a25.08,25.08,0,0,0-4.18.34,25.77,25.77,0,0,0-9.71,3.66,26.14,26.14,0,0,0-12.28,22.16v10.87A19.93,19.93,0,0,0,58,196.81v-5.18a15.85,15.85,0,0,1-4-6.76,15.55,15.55,0,0,1-.6-3.36q.28.33.6.66a23,23,0,0,0,4,3.35c4.08,2.7,10,4.85,18.54,4.85H188.16c8.53,0,14.46-2.15,18.54-4.86a23.14,23.14,0,0,0,3.75-3.09l.25-.26c.21-.22.4-.43.59-.65,0,.3-.05.61-.09.91a14.8,14.8,0,0,1-.5,2.42,15.75,15.75,0,0,1-4,6.79v5.18a20.1,20.1,0,0,0,4-3.65,19.77,19.77,0,0,0,4.63-12.74V169.55A24.7,24.7,0,0,0,215.08,166Zm-4,8.53a13.35,13.35,0,0,1-.63,1.29,17.81,17.81,0,0,1-3.75,4.65,19.57,19.57,0,0,1-2.63,2c-3.5,2.2-8.59,4-15.91,4H76.54c-9.41,0-15.13-2.88-18.54-5.9a17.51,17.51,0,0,1-3.76-4.66h0a13.08,13.08,0,0,1-.88-1.93v-4.32a22.19,22.19,0,0,1,22.17-22.16h.32a20.48,20.48,0,0,0-5.76,10.09,15,15,0,0,0-.33,1.89l4,.34a14.52,14.52,0,0,1,.79-3.19,16.1,16.1,0,0,1,8.32-9.13H183.1a16.15,16.15,0,0,1,8.36,9.24,14.2,14.2,0,0,1,.75,3.08l4-.34c0-.08,0-.48-.16-1.11a20.44,20.44,0,0,0-5.9-10.84,22.18,22.18,0,0,1,20.95,18.83,21.19,21.19,0,0,1,.25,3.3v4.31C211.28,174,211.2,174.23,211.08,174.51Z"/><rect class="cls-1" x="85" y="169.9" width="95.4" height="4"/></g></g></svg>