<svg xmlns="http://www.w3.org/2000/svg" viewBox="0 0 256 256"><defs><style>.cls-1{fill:#1d384d;}</style></defs><title>asymmetric keys</title><g id="icons_without_caption" data-name="icons without caption"><g id="ASYMMETRIC_KEYS" data-name="ASYMMETRIC KEYS"><path class="cls-1" d="M39.47,43.43V195.31H158.85v-14.4a19.13,19.13,0,0,1-4-4.18v14.58H43.47V47.43H154.85V154.07a19.61,19.61,0,0,1,4-4.18V43.43Z"/><rect class="cls-1" x="59.86" y="106.67" width="80.17" height="4"/><rect class="cls-1" x="59.86" y="86.14" width="80.17" height="4"/><rect class="cls-1" x="59.86" y="65.61" width="80.17" height="4"/><rect class="cls-1" x="59.86" y="127.21" width="80.17" height="4"/><rect class="cls-1" x="59.6" y="147.74" width="40.34" height="4"/><rect class="cls-1" x="59.6" y="168.28" width="21.25" height="4"/><path class="cls-1" d="M182.1,165.4a4.88,4.88,0,1,1-4.88-4.88A4.88,4.88,0,0,1,182.1,165.4Z"/><path class="cls-1" d="M170.83,141.78a23.71,23.71,0,0,0-20.91,12.69H116.73L102.1,163.3v8l14.48,9,7.09-6.57h3l7,6.86,4.62-4.47,2.25,2H151a23.31,23.31,0,0,0,3.88,4.61,22.57,22.57,0,0,0,4,3,23.4,23.4,0,0,0,12,3.3,23.62,23.62,0,0,0,0-47.24Zm0,43.24a19.58,19.58,0,0,1-12-4.11,19.13,19.13,0,0,1-4-4.18,18.8,18.8,0,0,1-1-1.59l-.57-1H142l-3.87-3.52L133.65,175l-5.37-5.27h-6.17l-6,5.56-10-6.19v-2.65h44.79v-4H111.28l6.56-4h34.61l.54-1.17a19.38,19.38,0,0,1,1.86-3.23,19.61,19.61,0,1,1,16,31Z"/><rect class="cls-1" x="166.36" y="123.38" width="12.03" height="4" transform="translate(297.75 -46.99) rotate(90)"/><rect class="cls-1" x="196.67" y="134.82" width="12.6" height="4" transform="translate(443.23 90.04) rotate(135)"/><rect class="cls-1" x="166.4" y="204.56" width="12.03" height="4" transform="translate(-34.15 378.97) rotate(-90)"/><rect class="cls-1" x="196.71" y="193.12" width="12.6" height="4" transform="translate(208.58 476.64) rotate(-135)"/><rect class="cls-1" x="204.5" y="164.26" width="12.03" height="4" transform="translate(421.03 332.52) rotate(-180)"/></g></g></svg>