<svg xmlns="http://www.w3.org/2000/svg" viewBox="0 0 256 256"><defs><style>.cls-1{fill:#1d384d;}</style></defs><title>atm</title><g id="icons_without_caption" data-name="icons without caption"><g id="ATM"><path class="cls-1" d="M58.49,50.29v139h48.68v-4H62.49v-131h131v131h-45v4h49v-139Z"/><path class="cls-1" d="M67,58.8v122h40.17v-4H71V62.8H185v114H148.49v4H189V58.8Z"/><path class="cls-1" d="M96,80.71v50.08H160.1V80.71Zm60.06,46.08H100V84.71H156.1Z"/><path class="cls-1" d="M75.38,110.1v16.35l15.91-1.68v-13Zm11.91,11.07-7.91.84v-7.47l7.91.84Z"/><path class="cls-1" d="M75.38,85.82v16.36l15.91-1.69v-13ZM87.29,96.89l-7.91.84V90.27l7.91.84Z"/><path class="cls-1" d="M164.47,111.79v13l15.91,1.68V110.1ZM176.37,122l-7.91-.84v-5.79l7.91-.84Z"/><path class="cls-1" d="M164.47,87.51v13l15.91,1.69V85.82Zm11.91,10.22-7.91-.84V91.11l7.91-.84Z"/><path class="cls-1" d="M89,148.82V162.5h18.18v-4H93v-5.68h14.18v-4h41.33v4h14.18v5.68H148.49v4h18.18V148.82Z"/><path class="cls-1" d="M107.16,148.83V193h41.33V148.83ZM111.34,189v-3.17A6.73,6.73,0,0,1,115.9,189Zm33.15,0h-4.57a6.73,6.73,0,0,1,4.57-3.17Zm0-7.23a11.45,11.45,0,0,0-6.8,3.54,8.76,8.76,0,0,0-2,3.69H120.15a8.76,8.76,0,0,0-2-3.69,11.51,11.51,0,0,0-7-3.57V152.83h33.33Z"/><path class="cls-1" d="M144.49,193v1.45c-4.38.67-7.88,3.55-8.82,7.23H120.15c-1-3.72-4.53-6.63-9-7.26V193h-4V205.7h41.33V193Zm-33.15,8.68v-3.17a6.7,6.7,0,0,1,4.56,3.17Zm33.15,0h-4.57a6.7,6.7,0,0,1,4.57-3.17Z"/><path class="cls-1" d="M140.46,158.5a10.45,10.45,0,0,0-3.59-5.67H118.79a10.45,10.45,0,0,0-3.59,5.67,9.26,9.26,0,0,0-.23,2.05,7.77,7.77,0,0,0,.06,1,8,8,0,0,0,.15,1,9.68,9.68,0,0,0,1.22,3,10.2,10.2,0,0,0,1,1.37,11.83,11.83,0,0,0,1.43,1.4,12.85,12.85,0,0,0,1.63,1.15,14.75,14.75,0,0,0,14.73,0,12.67,12.67,0,0,0,1.64-1.15,11.06,11.06,0,0,0,1.42-1.4,10.19,10.19,0,0,0,1-1.37,9.69,9.69,0,0,0,1.22-3,8,8,0,0,0,.15-1,7.77,7.77,0,0,0,.06-1A9.28,9.28,0,0,0,140.46,158.5Zm-3.86,3a4.76,4.76,0,0,1-.28,1,6,6,0,0,1-1.12,1.85,7.48,7.48,0,0,1-1.27,1.17l-.31.22a9.92,9.92,0,0,1-2.43,1.16,11.26,11.26,0,0,1-6.7,0,9.24,9.24,0,0,1-2.43-1.16l-.31-.22a7.53,7.53,0,0,1-1.28-1.17,6,6,0,0,1-1.12-1.85,4.78,4.78,0,0,1-.28-1,5.23,5.23,0,0,1-.09-1,5.5,5.5,0,0,1,.4-2.05c1.13-2.78,4.49-4.81,8.46-4.81s7.32,2,8.45,4.81a5.5,5.5,0,0,1,.4,2.05A5.22,5.22,0,0,1,136.59,161.52Z"/></g></g></svg>