<svg xmlns="http://www.w3.org/2000/svg" viewBox="0 0 256 256"><defs><style>.cls-1{fill:#1d384d;}</style></defs><title>attorney</title><g id="icons_without_caption" data-name="icons without caption"><g id="ATTORNEY"><path class="cls-1" d="M52.45,87.9a12.85,12.85,0,1,0,0,25.7h88.7V87.9Zm84.7,21.7H52.45a8.85,8.85,0,1,1,0-17.7h84.7Z"/><rect class="cls-1" x="178.13" y="72.49" width="4" height="56.52"/><rect class="cls-1" x="137.15" y="72.49" width="4" height="56.52"/><path class="cls-1" d="M181.58,127h-45.5a12.11,12.11,0,1,0,0,24.22h45.5a12.11,12.11,0,0,0,0-24.22Zm0,20.22h-45.5a8.11,8.11,0,1,1,0-16.22h45.5a8.12,8.12,0,0,1,7.85,6.11H139.15v4h50.27A8.12,8.12,0,0,1,181.58,147.23Z"/><path class="cls-1" d="M181.58,50.27h-45.5a12.11,12.11,0,0,0,0,24.22h45.5a12.11,12.11,0,0,0,0-24.22Zm0,20.22h-45.5a8.11,8.11,0,0,1,0-16.22h45.5a8.12,8.12,0,0,1,7.85,6.11H139.15v4h50.27A8.12,8.12,0,0,1,181.58,70.49Z"/><rect class="cls-1" x="189.52" y="166.14" width="29.91" height="4" transform="translate(-58.8 195.83) rotate(-45.44)"/><rect class="cls-1" x="114.46" y="153.18" width="4" height="29.91" transform="translate(-85.05 133.11) rotate(-45.43)"/><rect class="cls-1" x="158.47" y="164.13" width="4" height="14.66"/><path class="cls-1" d="M114.46,185.11v16.62H44.74v4H205.2V185.11Zm86.73,16.62H118.46V189.11H201.2Z"/></g></g></svg>