<svg xmlns="http://www.w3.org/2000/svg" viewBox="0 0 256 256"><defs><style>.cls-1{fill:#1d384d;}</style></defs><title>balance</title><g id="icons_without_caption" data-name="icons without caption"><g id="BALANCE"><path class="cls-1" d="M138.63,46.6h-22.2V91.7h0V192.52h22.19V91.7h0Zm-4,141.92H120.43V91.7h0V81.61a9.74,9.74,0,0,1-1.26-1.72,9.6,9.6,0,0,1,.74-10.65,7.94,7.94,0,0,1,.52-.63v-18h14.2v18a7.94,7.94,0,0,1,.52.63,9.6,9.6,0,0,1,.74,10.65,9.74,9.74,0,0,1-1.26,1.72V91.7h0Z"/><path class="cls-1" d="M207.43,99.43c-6.15-9.57-24.68-30.89-68.8-34L137,65.32l-2.37-.12q-3.45-.15-7.1-.15c-2.44,0-4.8,0-7.1.15l-2.37.12-1.63.11c-44.13,3.11-62.65,24.43-68.8,34a5.66,5.66,0,0,0,.7,6.9,4.31,4.31,0,0,0,3,1.31h.13a4.48,4.48,0,0,0,.82-.08,4.33,4.33,0,0,0,2-1l.68-.58c9.21-7.76,28.48-19.68,61.48-21.92l.79,0c1.05-.07,2.12-.13,3.21-.17l2.84-.1a9.58,9.58,0,0,1-2.84-2.13,9.74,9.74,0,0,1-1.26-1.72l-2.74.16-1.55.11c-34.21,2.6-54,15.41-63.23,23.38a.73.73,0,0,1-.13.08.19.19,0,0,1-.1,0,.64.64,0,0,1-.43-.33,1.63,1.63,0,0,1-.22-.87,1.66,1.66,0,0,1,.22-.86c5.74-8.93,22.95-28.67,64.1-32l1.34-.11c1.14-.08,2.3-.15,3.48-.2a7.94,7.94,0,0,1,.52-.63,9.64,9.64,0,0,1,14.2,0,7.94,7.94,0,0,1,.52.63c1.18,0,2.34.12,3.48.2l1.34.11c41.15,3.37,58.36,23.11,64.1,32a1.66,1.66,0,0,1,.22.86,1.32,1.32,0,0,1-.42,1.08.34.34,0,0,1-.23.12.45.45,0,0,1-.23-.11l-.64-.55c-9.47-8-29.15-20.29-62.59-22.83l-1.55-.11-2.74-.16a9.74,9.74,0,0,1-1.26,1.72,9.58,9.58,0,0,1-2.84,2.13l2.84.1c1.09,0,2.16.1,3.21.17l.79,0c33.76,2.29,53.15,14.71,62.1,22.45l.06,0a4.29,4.29,0,0,0,2.85,1.09h.16a3.67,3.67,0,0,0,1-.16,4.66,4.66,0,0,0,2.49-1.8,5.63,5.63,0,0,0,1-3.23A5.49,5.49,0,0,0,207.43,99.43Z"/><path class="cls-1" d="M76.25,142.74h0l-22-38.09-.44.25h0l-2.22-1.28-.53-.3-.69-.4-2,3.41L27.26,142.74l-2,2A26.27,26.27,0,0,0,28.82,158a26.51,26.51,0,0,0,49.43-13.3ZM51.74,108.42h0L71.6,142.74H31.88Zm0,58.82A22.59,22.59,0,0,1,32.25,156l-.08-.12a21.35,21.35,0,0,1-2.81-9.13h44.8A22.52,22.52,0,0,1,51.74,167.24Z"/><path class="cls-1" d="M228.76,142.74h0l-22-38.09-.44.25h0l-2.38-1.37-1.06-.61,0,.07-2,3.52-21,36.23-2,2a26.51,26.51,0,0,0,53,0Zm-24.51-34.32h0l19.86,34.32H184.39Zm0,58.82a22.45,22.45,0,0,1-22.41-20.5h44.83A22.53,22.53,0,0,1,204.25,167.24Z"/><path class="cls-1" d="M140,69.55a13.79,13.79,0,0,0-1.34-2.33,14,14,0,0,0-1.63-1.9,13.64,13.64,0,0,0-18.94,0,14,14,0,0,0-1.63,1.9,13.79,13.79,0,0,0-1.34,2.33,13.59,13.59,0,0,0-1.19,5.56,13.29,13.29,0,0,0,1,5.05A13.1,13.1,0,0,0,116.43,83a10.88,10.88,0,0,0,.79,1,13.6,13.6,0,0,0,20.62,0,10.88,10.88,0,0,0,.79-1,13.1,13.1,0,0,0,1.55-2.85,13.29,13.29,0,0,0,1-5.05A13.59,13.59,0,0,0,140,69.55Zm-4.08,10.34a9.74,9.74,0,0,1-1.26,1.72,9.63,9.63,0,0,1-14.2,0,9.74,9.74,0,0,1-1.26-1.72,9.6,9.6,0,0,1,.74-10.65,7.94,7.94,0,0,1,.52-.63,9.64,9.64,0,0,1,14.2,0,7.94,7.94,0,0,1,.52.63,9.6,9.6,0,0,1,.74,10.65Z"/><polygon class="cls-1" points="136.63 188.52 136.63 192.52 183.87 192.52 183.87 205.4 72.12 205.4 72.12 192.52 118.43 192.52 118.43 188.52 68.12 188.52 68.12 209.4 187.87 209.4 187.87 188.52 136.63 188.52"/></g></g></svg>