<svg xmlns="http://www.w3.org/2000/svg" viewBox="0 0 256 256"><defs><style>.cls-1{fill:#1d384d;}</style></defs><title>bank</title><g id="icons_without_caption" data-name="icons without caption"><g id="BANK"><path class="cls-1" d="M82.61,182.84V148.63A11.68,11.68,0,0,0,93.1,137a11.55,11.55,0,0,0-.23-2.29,11.24,11.24,0,0,0-1.62-4H85.82a7.63,7.63,0,0,1,2.93,4A7.51,7.51,0,0,1,89.1,137a7.68,7.68,0,0,1-7.67,7.67H73.66v4h5v34.09h-5v4h7.77a7.68,7.68,0,0,1,0,15.35H58.79a7.68,7.68,0,0,1,0-15.35h7.77v-4H61.8V148.69h4.76v-4H58.79A7.68,7.68,0,0,1,51.12,137a7.51,7.51,0,0,1,.35-2.29,7.63,7.63,0,0,1,2.93-4H49a11.24,11.24,0,0,0-1.62,4,11.55,11.55,0,0,0-.23,2.29A11.67,11.67,0,0,0,57.8,148.64h0v34.19a11.67,11.67,0,0,0,1,23.3H81.42a11.68,11.68,0,0,0,1.18-23.29Z"/><path class="cls-1" d="M140.94,182.84V148.63h0A11.7,11.7,0,0,0,151.44,137a11.55,11.55,0,0,0-.23-2.29,11.24,11.24,0,0,0-1.62-4h-5.43a7.69,7.69,0,0,1,2.93,4,7.51,7.51,0,0,1,.35,2.29,7.69,7.69,0,0,1-7.68,7.67H132v4h5v34.09h-5v4h7.77a7.68,7.68,0,0,1,0,15.35H117.12a7.68,7.68,0,0,1,0-15.35h7.77v-4h-4.76V148.69h4.77v-4h-7.78a7.68,7.68,0,0,1-7.67-7.67,7.51,7.51,0,0,1,.35-2.29,7.63,7.63,0,0,1,2.93-4H107.3a11.24,11.24,0,0,0-1.62,4,11.55,11.55,0,0,0-.23,2.29,11.68,11.68,0,0,0,10.68,11.62h0v34.19a11.67,11.67,0,0,0,1,23.3h22.64a11.68,11.68,0,0,0,1.18-23.29Z"/><path class="cls-1" d="M199.27,182.84V148.63h0A11.7,11.7,0,0,0,209.77,137a11.55,11.55,0,0,0-.23-2.29,11.43,11.43,0,0,0-1.62-4h-5.43a7.69,7.69,0,0,1,2.93,4,7.51,7.51,0,0,1,.35,2.29,7.69,7.69,0,0,1-7.68,7.67h-7.77v4h5v34.09h-5v4h7.77a7.68,7.68,0,0,1,0,15.35H175.45a7.68,7.68,0,0,1,0-15.35h7.77v-4h-4.76V148.69h4.77v-4h-7.77a7.68,7.68,0,0,1-7.68-7.67,7.51,7.51,0,0,1,.35-2.29,7.63,7.63,0,0,1,2.93-4h-5.43a11.24,11.24,0,0,0-1.62,4,11.55,11.55,0,0,0-.23,2.29,11.68,11.68,0,0,0,10.68,11.62h0v34.19a11.67,11.67,0,0,0,1,23.3h22.64a11.68,11.68,0,0,0,1.18-23.29Z"/><path class="cls-1" d="M128,49.87,48,95.46,47,96v26.05H209V96Zm77,68.21H51V98.36l77-43.89,77,43.89Z"/><path class="cls-1" d="M128,79.74a15.63,15.63,0,1,0,15.63,15.62A15.64,15.64,0,0,0,128,79.74ZM128,107a11.63,11.63,0,1,1,11.63-11.63A11.64,11.64,0,0,1,128,107Z"/><path class="cls-1" d="M38.14,118.08v16.65H217.87V118.08Zm175.73,12.65H42.14v-8.65H213.87Z"/><rect class="cls-1" x="40.13" y="202.13" width="175.73" height="4"/><polygon class="cls-1" points="128 61.78 56.84 102.26 56.84 120.08 60.84 120.08 60.84 104.59 128 66.38 195.27 104.59 195.27 120.08 199.27 120.08 199.27 102.26 128 61.78"/></g></g></svg>