<svg xmlns="http://www.w3.org/2000/svg" viewBox="0 0 256 256"><defs><style>.cls-1{fill:#1d384d;}</style></defs><title>big data</title><g id="icons_without_caption" data-name="icons without caption"><g id="BIG_DATA" data-name="BIG DATA"><circle class="cls-1" cx="75.63" cy="189.26" r="4.17"/><circle class="cls-1" cx="89.75" cy="189.26" r="4.17"/><circle class="cls-1" cx="103.86" cy="189.26" r="4.17"/><polygon class="cls-1" points="126.5 203.55 126.5 207.55 44.76 207.55 44.76 174.96 48.76 174.96 48.76 203.55 126.5 203.55"/><circle class="cls-1" cx="75.63" cy="189.26" r="4.17"/><circle class="cls-1" cx="89.75" cy="189.26" r="4.17"/><circle class="cls-1" cx="103.86" cy="189.26" r="4.17"/><circle class="cls-1" cx="75.63" cy="156.67" r="4.16"/><circle class="cls-1" cx="89.75" cy="156.67" r="4.16"/><circle class="cls-1" cx="103.86" cy="156.67" r="4.16"/><polygon class="cls-1" points="118.67 170.96 118.67 174.96 44.76 174.96 44.76 142.37 48.76 142.37 48.76 170.96 118.67 170.96"/><circle class="cls-1" cx="75.63" cy="156.67" r="4.16"/><circle class="cls-1" cx="89.75" cy="156.67" r="4.16"/><circle class="cls-1" cx="103.86" cy="156.67" r="4.16"/><ellipse class="cls-1" cx="75.63" cy="124.08" rx="4.16" ry="4.16"/><ellipse class="cls-1" cx="89.75" cy="124.08" rx="4.17" ry="4.16"/><ellipse class="cls-1" cx="103.86" cy="124.08" rx="4.17" ry="4.16"/><polygon class="cls-1" points="48.76 109.79 48.76 138.37 118.67 138.37 118.67 142.37 44.76 142.37 44.76 105.79 118.67 105.79 118.67 109.79 48.76 109.79"/><ellipse class="cls-1" cx="75.63" cy="124.08" rx="4.16" ry="4.16"/><ellipse class="cls-1" cx="89.75" cy="124.08" rx="4.17" ry="4.16"/><ellipse class="cls-1" cx="103.86" cy="124.08" rx="4.17" ry="4.16"/><path class="cls-1" d="M164.95,163a11.18,11.18,0,1,0,11.18,11.18A11.19,11.19,0,0,0,164.95,163Zm0,18.36a7.18,7.18,0,1,1,7.18-7.18A7.19,7.19,0,0,1,164.95,181.37Z"/><path class="cls-1" d="M135.66,148.55a2.7,2.7,0,0,1,2.72-2.72h52.36a2.72,2.72,0,0,1,2.72,2.72,2.73,2.73,0,0,1-2.72,2.72H138.38A2.72,2.72,0,0,1,135.66,148.55Z"/><path class="cls-1" d="M135.66,128.17a2.7,2.7,0,0,1,2.72-2.72h52.36a2.72,2.72,0,0,1,2.72,2.72,2.73,2.73,0,0,1-2.72,2.72H138.38A2.72,2.72,0,0,1,135.66,128.17Z"/><path class="cls-1" d="M135.66,107.79a2.7,2.7,0,0,1,2.72-2.72h52.36a2.72,2.72,0,0,1,2.72,2.72,2.73,2.73,0,0,1-2.72,2.72H138.38A2.72,2.72,0,0,1,135.66,107.79Z"/><path class="cls-1" d="M135.66,87.41a2.7,2.7,0,0,1,2.72-2.72h52.36a2.72,2.72,0,0,1,2.72,2.72,2.73,2.73,0,0,1-2.72,2.72H138.38A2.72,2.72,0,0,1,135.66,87.41Z"/><path class="cls-1" d="M135.66,67a2.7,2.7,0,0,1,2.72-2.72h52.36A2.72,2.72,0,0,1,193.46,67a2.73,2.73,0,0,1-2.72,2.72H138.38A2.72,2.72,0,0,1,135.66,67Z"/><polygon class="cls-1" points="203.4 198.67 203.4 207.55 126.5 207.55 126.5 198.67 130.5 198.67 130.5 203.55 199.4 203.55 199.4 198.67 203.4 198.67"/><path class="cls-1" d="M193.46,87.41a2.73,2.73,0,0,1-2.72,2.72H138.38a2.72,2.72,0,1,1,0-5.44h52.36A2.72,2.72,0,0,1,193.46,87.41Z"/><path class="cls-1" d="M193.46,67a2.73,2.73,0,0,1-2.72,2.72H138.38a2.72,2.72,0,1,1,0-5.44h52.36A2.72,2.72,0,0,1,193.46,67Z"/><path class="cls-1" d="M193.46,107.79a2.73,2.73,0,0,1-2.72,2.72H138.38a2.72,2.72,0,1,1,0-5.44h52.36A2.72,2.72,0,0,1,193.46,107.79Z"/><path class="cls-1" d="M193.46,128.17a2.73,2.73,0,0,1-2.72,2.72H138.38a2.72,2.72,0,1,1,0-5.44h52.36A2.72,2.72,0,0,1,193.46,128.17Z"/><path class="cls-1" d="M193.46,148.55a2.73,2.73,0,0,1-2.72,2.72H138.38a2.72,2.72,0,1,1,0-5.44h52.36A2.72,2.72,0,0,1,193.46,148.55Z"/><path class="cls-1" d="M118.67,48.45V198.67h92.57V48.45Zm88.57,146.22H122.67V52.45h84.57Z"/><path class="cls-1" d="M164.95,163a11.18,11.18,0,1,0,11.18,11.18A11.19,11.19,0,0,0,164.95,163Zm0,18.36a7.18,7.18,0,1,1,7.18-7.18A7.19,7.19,0,0,1,164.95,181.37Z"/></g></g></svg>