<svg xmlns="http://www.w3.org/2000/svg" viewBox="0 0 256 256"><defs><style>.cls-1{fill:#1d384d;}</style></defs><title>bitcoin</title><g id="icons_without_caption" data-name="icons without caption"><g id="BITCOIN"><path class="cls-1" d="M131.72,155.42A27.29,27.29,0,1,1,159,128.13,27.32,27.32,0,0,1,131.72,155.42Zm0-50.58A23.29,23.29,0,1,0,155,128.13,23.32,23.32,0,0,0,131.72,104.84Z"/><path class="cls-1" d="M141.79,126.31a5.73,5.73,0,0,0,1.6-4v-.42a5.76,5.76,0,0,0-5.76-5.76v.36h0v-.35h-2.28v-4.54h-2.17v4.54h-4v-4.54H127v4.54H118.5v2.17h0a3.56,3.56,0,0,1,3.56,3.56v12.83a3.56,3.56,0,0,1-3.56,3.56h0v2.17H127V145h2.17v-4.54h4V145h2.17v-4.54h4.16a7,7,0,0,0,7-7v-.53A7,7,0,0,0,141.79,126.31Zm-15.06-8h8.93a3.59,3.59,0,0,1,3.59,3.58v.42a3.59,3.59,0,0,1-3.59,3.59h-8.93Zm8.73,19.94h-8.73V128.09h10.94a4.83,4.83,0,0,1,4.82,4.82v.53a4.83,4.83,0,0,1-4.82,4.82Z"/><path class="cls-1" d="M214,204.28a34.35,34.35,0,1,1,34.35-34.35A34.39,34.39,0,0,1,214,204.28Zm0-64.69a30.35,30.35,0,1,0,30.35,30.35A30.38,30.38,0,0,0,214,139.59Z"/><path class="cls-1" d="M225.93,166.88a6.84,6.84,0,0,0,1.91-4.74v-.5a6.88,6.88,0,0,0-6.87-6.87v.42h0v-.42h-2.72v-5.42h-3.59v5.42h-2.82v-5.42h-3.59v5.42H198.13v2.59h0a4.24,4.24,0,0,1,4.24,4.24v15.31a4.24,4.24,0,0,1-4.24,4.24h0v2.59h10.13v5.42h3.59v-5.42h2.82v5.42h3.59v-5.42h5a8.35,8.35,0,0,0,8.35-8.35v-.63A8.35,8.35,0,0,0,225.93,166.88Zm-18-9.52h10.66a4.28,4.28,0,0,1,4.28,4.28v.5a4.28,4.28,0,0,1-4.28,4.28H208Zm10.42,23.79H208V169H221a5.76,5.76,0,0,1,5.76,5.76v.63a5.76,5.76,0,0,1-5.76,5.76Z"/><path class="cls-1" d="M203.19,82.63V67.18H185.63V51.72H7.62v91H25.18v15.46H42.74v15.46H180.12a34.52,34.52,0,0,1-.2-3.69v-.31H67.83a23.18,23.18,0,0,0-18.67-21.13,21.37,21.37,0,0,0-2.42-.34V107.7A23.17,23.17,0,0,0,67.8,86.63H195.69c0,.31.05.62.1.92a22.35,22.35,0,0,0,1,4.35,22.79,22.79,0,0,0,2.37,5,23.1,23.1,0,0,0,17.56,10.78v28.12a32.73,32.73,0,0,1,4,.68V82.63ZM181.58,55.72V67.18H170a19.13,19.13,0,0,1-5.44-11.46Zm-170,0h17a19.18,19.18,0,0,1-17,17Zm13.56,82.57H11.62V121.24a19.17,19.17,0,0,1,13.56,7.9Zm0-15.13a23.07,23.07,0,0,0-13.56-5.93V76.78a23.07,23.07,0,0,0,13.56-5.93Zm7.5-67.44H160.57a22.82,22.82,0,0,0,4.25,11.46H28.44A22.9,22.9,0,0,0,32.68,55.72Zm10.06,82.9A23.13,23.13,0,0,0,31.6,133a21.35,21.35,0,0,0-2.42-.34V92.24a23.07,23.07,0,0,0,13.56-5.93ZM29.18,88.22v-17H46.23A19.19,19.19,0,0,1,29.18,88.22Zm13.56,65.53H29.18V136.7a19.22,19.22,0,0,1,12,6,17.9,17.9,0,0,1,1.56,1.9Zm7.4-.92a19.24,19.24,0,0,1,13.65,16.38h-17V152.16A19.13,19.13,0,0,1,50.14,152.83Zm-3.4-49.15v-17h17A19.18,19.18,0,0,1,46.74,103.68Zm-.74-21a22.78,22.78,0,0,0,4.24-11.45H178.13a9,9,0,0,0,.1.91,21.79,21.79,0,0,0,1,4.35,22.77,22.77,0,0,0,2.37,5c.24.4.51.8.79,1.18Zm141.57,0a18.89,18.89,0,0,1-2-2.37,18.51,18.51,0,0,1-1.92-3.39,18.78,18.78,0,0,1-1.52-5.69h17V82.63Zm15.57,13.09a19.29,19.29,0,0,1-3.44-9.09h17v17A19.13,19.13,0,0,1,203.14,95.72Z"/></g></g></svg>