<svg xmlns="http://www.w3.org/2000/svg" viewBox="0 0 256 256"><defs><style>.cls-1{fill:#1d384d;}</style></defs><title>british pound</title><g id="icons_without_caption" data-name="icons without caption"><g id="BRITISH_POUND" data-name="BRITISH POUND"><path class="cls-1" d="M132.79,155.26A27.29,27.29,0,1,1,160.08,128,27.32,27.32,0,0,1,132.79,155.26Zm0-50.58A23.29,23.29,0,1,0,156.08,128,23.32,23.32,0,0,0,132.79,104.67Z"/><path class="cls-1" d="M212.65,204.44a34.67,34.67,0,1,1,34.67-34.67A34.71,34.71,0,0,1,212.65,204.44Zm0-65.33a30.67,30.67,0,1,0,30.67,30.67A30.7,30.7,0,0,0,212.65,139.11Z"/><path class="cls-1" d="M129.64,137.47a8.4,8.4,0,0,0,2.33-7.23h4.64v-3h-5.85c-.46-.78-1-1.51-1.49-2.23l-.28-.39c-.93-1.3-2-2.78-1.83-4.11a4.09,4.09,0,0,1,1.93-3,7.92,7.92,0,0,1,6.9-.45,4.6,4.6,0,0,1,2.9,3.26l.32,1.47,2.93-.63-.32-1.47a7.53,7.53,0,0,0-4.67-5.39,10.93,10.93,0,0,0-9.66.68,7.08,7.08,0,0,0-3.31,5.18c-.28,2.48,1.19,4.53,2.37,6.19l.28.39.34.49h-2.44v3h4.13c0,.06,0,.11.07.16a5.37,5.37,0,0,1-1.68,5.23l-2.48,2.22,1,2.62h17.29v-3Z"/><path class="cls-1" d="M207.38,182.53a10.78,10.78,0,0,0,3-9.28h6V169.4h-7.51c-.59-1-1.25-1.94-1.91-2.86l-.36-.5c-1.19-1.67-2.55-3.56-2.35-5.27a5.25,5.25,0,0,1,2.48-3.82,10.16,10.16,0,0,1,8.85-.58,5.91,5.91,0,0,1,3.72,4.18l.41,1.88,3.76-.81-.41-1.88a9.67,9.67,0,0,0-6-6.92,14,14,0,0,0-12.4.87,9.08,9.08,0,0,0-4.24,6.65c-.36,3.18,1.53,5.82,3,7.94l.36.51.44.62h-3.13v3.85h5.3c0,.07.06.14.08.21.67,2.15-.17,4.69-2.16,6.71L201.14,183l1.28,3.36h22.19v-3.85Z"/><path class="cls-1" d="M204.21,82.47V67H186.65V51.56H8.69v91H26.25V158H43.81v15.46H178.19a34.52,34.52,0,0,1-.2-3.69v-.31H68.9a23.18,23.18,0,0,0-18.67-21.13,21.36,21.36,0,0,0-2.42-.34V107.54A23.17,23.17,0,0,0,68.87,86.47H196.76a9.24,9.24,0,0,0,.1.92,22.37,22.37,0,0,0,1,4.35,22.8,22.8,0,0,0,2.37,5,23.1,23.1,0,0,0,17.56,10.78v28a33,33,0,0,1,4,.84V82.47ZM182.7,55.56V67H171.09a19.13,19.13,0,0,1-5.44-11.46Zm-170,0H29.74a19.19,19.19,0,0,1-17.05,17Zm13.56,82.57H12.69v-17A19.17,19.17,0,0,1,26.25,129Zm0-15.13a23.07,23.07,0,0,0-13.56-5.93V76.62a23.07,23.07,0,0,0,13.56-5.93Zm7.5-67.44H161.64A22.83,22.83,0,0,0,165.89,67H29.51A22.91,22.91,0,0,0,33.75,55.56Zm10.06,82.9a23.13,23.13,0,0,0-11.14-5.59,21.35,21.35,0,0,0-2.42-.34V92.08a23.07,23.07,0,0,0,13.56-5.93ZM30.25,88.06V71h17A19.19,19.19,0,0,1,30.25,88.06Zm13.56,65.53H30.25V136.54a19.23,19.23,0,0,1,12,6,17.92,17.92,0,0,1,1.56,1.9Zm7.4-.92a19.24,19.24,0,0,1,13.65,16.38h-17V152A19.12,19.12,0,0,1,51.21,152.67Zm-3.4-49.15v-17h17A19.18,19.18,0,0,1,47.81,103.52Zm-.74-21A22.78,22.78,0,0,0,51.31,71H179.2a9.07,9.07,0,0,0,.1.91,21.8,21.8,0,0,0,1,4.35,22.76,22.76,0,0,0,2.37,5c.24.4.51.8.79,1.18Zm141.57,0a18.92,18.92,0,0,1-2-2.37,18.51,18.51,0,0,1-1.92-3.39A18.77,18.77,0,0,1,183.21,71h17.05V82.47Zm15.57,13.09a19.29,19.29,0,0,1-3.44-9.09h17v17A19.13,19.13,0,0,1,204.21,95.56Z"/></g></g></svg>