<svg xmlns="http://www.w3.org/2000/svg" viewBox="0 0 256 256"><defs><style>.cls-1{fill:#1d384d;}</style></defs><title>budgeting</title><g id="icons_without_caption" data-name="icons without caption"><g id="BUDGETING"><path class="cls-1" d="M47.86,44.91V211.1H178.41V94.61l-4,5.38V207.1H51.86V48.91H174.41V73.75L177,70.32l1.45,1.08V44.91Z"/><path class="cls-1" d="M86.93,83.59c-2.39-.78-4.12-1.43-4.12-3.22s1.4-2.61,3.39-2.61A8.88,8.88,0,0,1,91,79.44l1.44-1.78a11.74,11.74,0,0,0-4.87-2.08V71.85H85.67v3.62c-3.49.17-5.43,2.27-5.43,5,0,3.41,2.85,4.39,6,5.39,2.64.83,4.28,1.51,4.28,3.56,0,1.8-1.56,2.85-3.67,2.85a8.12,8.12,0,0,1-5.51-2.37l-1.5,1.78a10,10,0,0,0,5.85,2.81V98h1.92V94.57c3.47-.28,5.53-2.33,5.53-5.25C93.12,85.65,90.45,84.71,86.93,83.59Z"/><path class="cls-1" d="M68.09,63.8V106l77.36,0h5l3-4h-5l-76.33,0V67.8l83.87.06V98.57l4-5.38V63.86Z"/><path class="cls-1" d="M148.42,102h5L156,98.57V91.88Zm30-35.6-2.27-1.69-1.73,2.33L160,86.5l-4,5.38L148.42,102l-3,4L132.1,124l-3,4L116.2,145.37l-3,4-5.27,7.1-2.39,3.21,3.21,2.38,12.56,9.33,3.2,2.38h0l1.89-2.55.35-.47h0l.14-.19,2.83-3.81,12.92-17.39,3-4,28.75-38.69,4-5.38,16.7-22.47Zm-4,33.57-50.69,68.19-12.56-9.33L150.43,106l3-4L156,98.57l4-5.38,14.45-19.44L177,70.32l1.45,1.08,11.11,8.26-11.11,15Z"/><polygon class="cls-1" points="177.41 118.18 174.2 115.79 202.54 77.65 188.83 67.46 191.22 64.25 208.14 76.83 177.41 118.18"/><path class="cls-1" d="M125.78,169.72l-2.06-1.54-12.56-9.33-3.21-2.38-2.39,3.21-2,2.74-.19.31c-.09.18-.83,1.72-1.7,4-.44,1.16-.91,2.52-1.34,4-1.28,4.3-2.27,9.66-1.37,14.31.07.32.14.64.22,1l.4,1.57,1.62-.07c.32,0,.65,0,1-.07h0c9.58-1,19.67-10.24,20.11-10.65l2.27-3,1.9-2.54.35-.47h0l.14-.19ZM119.41,174c-1.12,1-9.24,8.1-16.7,9.36-.94-7.5,3.51-17.34,4.14-18.69l1.92-2.59,12.56,9.33Z"/><rect class="cls-1" x="96.48" y="185.83" width="5.76" height="4" transform="translate(-110.66 155.53) rotate(-53.38)"/><rect class="cls-1" x="100.79" y="82.94" width="47.22" height="4"/><rect class="cls-1" x="70.03" y="123.97" width="63.43" height="4"/><rect class="cls-1" x="70.03" y="145.36" width="47.17" height="4"/><rect class="cls-1" x="69.75" y="166.75" width="33.29" height="4"/><rect class="cls-1" x="69.75" y="188.14" width="27.62" height="4"/><rect class="cls-1" x="125.78" y="166.75" width="32.18" height="4"/><rect class="cls-1" x="141.68" y="145.36" width="16.28" height="4"/></g></g></svg>