<svg xmlns="http://www.w3.org/2000/svg" viewBox="0 0 256 256"><defs><style>.cls-1{fill:#1d384d;}</style></defs><title>calculator</title><g id="icons_without_caption" data-name="icons without caption"><g id="CALCULATOR"><path class="cls-1" d="M169.67,201.83H86.33a18.48,18.48,0,0,1-18.46-18.46V72.63A18.48,18.48,0,0,1,86.33,54.17h83.34a18.48,18.48,0,0,1,18.46,18.46V183.37A18.48,18.48,0,0,1,169.67,201.83ZM86.33,58.17A14.47,14.47,0,0,0,71.87,72.63V183.37a14.47,14.47,0,0,0,14.46,14.46h83.34a14.48,14.48,0,0,0,14.46-14.46V72.63a14.47,14.47,0,0,0-14.46-14.46Z"/><path class="cls-1" d="M97.16,148.06a12,12,0,1,1,12-12A12,12,0,0,1,97.16,148.06Zm0-19.91a8,8,0,1,0,8,8A8,8,0,0,0,97.16,128.15Z"/><path class="cls-1" d="M128.86,148.06a12,12,0,1,1,12-12A12,12,0,0,1,128.86,148.06Zm0-19.91a8,8,0,1,0,8,8A8,8,0,0,0,128.86,128.15Z"/><path class="cls-1" d="M97.16,181.29a12,12,0,1,1,12-12A12,12,0,0,1,97.16,181.29Zm0-19.91a8,8,0,1,0,8,8A8,8,0,0,0,97.16,161.37Z"/><path class="cls-1" d="M128.86,181.29a12,12,0,1,1,12-12A12,12,0,0,1,128.86,181.29Zm0-19.91a8,8,0,1,0,8,8A8,8,0,0,0,128.86,161.37Z"/><path class="cls-1" d="M160.56,148.06a12,12,0,1,1,12-12A12,12,0,0,1,160.56,148.06Zm0-19.91a8,8,0,1,0,8,8A8,8,0,0,0,160.56,128.15Z"/><path class="cls-1" d="M160.56,181.29a12,12,0,1,1,12-12A12,12,0,0,1,160.56,181.29Zm0-19.91a8,8,0,1,0,8,8A8,8,0,0,0,160.56,161.37Z"/><path class="cls-1" d="M172.52,105.89H85.2V73.34h87.32Zm-83.32-4h79.32V77.34H89.2Z"/></g></g></svg>