<svg xmlns="http://www.w3.org/2000/svg" viewBox="0 0 256 256"><defs><style>.cls-1{fill:#1d384d;}</style></defs><title>check</title><g id="icons_without_caption" data-name="icons without caption"><g id="CHECK"><polygon class="cls-1" points="21.93 66.35 21.93 176.27 203.28 176.27 203.28 180.27 17.93 180.27 17.93 62.35 205.28 62.35 205.28 66.35 21.93 66.35"/><path class="cls-1" d="M228.18,180.26H203.28V54.51h24.93Zm-20.91-4h16.93V58.51H207.28Z"/><path class="cls-1" d="M191.31,102.33H36.75V80.21H191.31Zm-150.56-4H187.31V84.21H40.75Z"/><rect class="cls-1" x="127.22" y="132.06" width="62.09" height="4"/><rect class="cls-1" x="127.22" y="153.81" width="62.09" height="4"/><polygon class="cls-1" points="238.07 99.27 234.07 99.27 234.07 48.52 215.74 48.52 215.74 44.52 238.07 44.52 238.07 99.27"/><path class="cls-1" d="M203.28,176.27v4h0V184l0,.36c.12.65,3,15.92,11.17,22.5l1.26,1,1.25-1c8.14-6.58,11.05-21.85,11.18-22.5l0-8.13Zm20.93,7.57c-.31,1.54-2.79,13-8.46,18.8-5.68-5.84-8.16-17.26-8.47-18.8v-3.57h16.93Z"/><rect class="cls-1" x="213.74" y="205.34" width="4" height="6.14"/><path class="cls-1" d="M64.24,149.35c0,4.17-2.93,7.1-7.9,7.5v4.95H53.61v-5a14.24,14.24,0,0,1-8.36-4l2.13-2.55a11.6,11.6,0,0,0,7.88,3.39c3,0,5.24-1.5,5.24-4.07,0-2.93-2.35-3.91-6.12-5.08-4.47-1.44-8.53-2.83-8.53-7.7,0-4,2.77-7,7.76-7.22V124.4h2.73v5.34a16.71,16.71,0,0,1,7,3l-2.05,2.53a12.68,12.68,0,0,0-6.88-2.41c-2.85,0-4.85,1.34-4.85,3.73,0,2.55,2.47,3.49,5.88,4.61,5,1.6,8.83,2.93,8.83,8.18Z"/></g></g></svg>