<svg xmlns="http://www.w3.org/2000/svg" viewBox="0 0 256 256"><defs><style>.cls-1{fill:#1d384d;}</style></defs><title>chinese yuan</title><g id="icons_without_caption" data-name="icons without caption"><g id="CHINESE_YUAN" data-name="CHINESE YUAN"><path class="cls-1" d="M204.21,82.47V67H186.65V51.56H8.69v91H26.25V158H43.81v15.46H178.19a34.52,34.52,0,0,1-.2-3.69v-.31H68.9a23.18,23.18,0,0,0-18.67-21.13,21.35,21.35,0,0,0-2.42-.34V107.54A23.17,23.17,0,0,0,68.86,86.47H196.76a9.24,9.24,0,0,0,.1.92,22.34,22.34,0,0,0,1,4.35,22.79,22.79,0,0,0,2.37,5,23.1,23.1,0,0,0,17.56,10.78v28a33,33,0,0,1,4,.84V82.47ZM182.7,55.56V67H171.09a19.13,19.13,0,0,1-5.44-11.46Zm-170,0h17a19.19,19.19,0,0,1-17,17Zm13.56,82.57H12.69v-17A19.17,19.17,0,0,1,26.25,129Zm0-15.13a23.07,23.07,0,0,0-13.56-5.93V76.62a23.07,23.07,0,0,0,13.56-5.93Zm7.5-67.44H161.64A22.83,22.83,0,0,0,165.89,67H29.51A22.91,22.91,0,0,0,33.74,55.56Zm10.06,82.9a23.13,23.13,0,0,0-11.14-5.59,21.35,21.35,0,0,0-2.42-.34V92.08a23.07,23.07,0,0,0,13.56-5.93ZM30.25,88.06V71H47.3A19.19,19.19,0,0,1,30.25,88.06Zm13.56,65.53H30.25V136.54a19.23,19.23,0,0,1,12,6,17.91,17.91,0,0,1,1.56,1.9Zm7.4-.92a19.24,19.24,0,0,1,13.65,16.38H47.81V152A19.12,19.12,0,0,1,51.21,152.67Zm-3.4-49.15v-17H64.86A19.18,19.18,0,0,1,47.81,103.52Zm-.74-21A22.78,22.78,0,0,0,51.31,71H179.2a9,9,0,0,0,.1.91,21.79,21.79,0,0,0,1,4.35,22.77,22.77,0,0,0,2.37,5c.24.4.51.8.79,1.18Zm141.57,0a18.91,18.91,0,0,1-2-2.37,18.51,18.51,0,0,1-1.92-3.39A18.77,18.77,0,0,1,183.21,71h17V82.47Zm15.57,13.09a19.29,19.29,0,0,1-3.44-9.09h17v17A19.13,19.13,0,0,1,204.21,95.56Z"/><path class="cls-1" d="M132.79,100.67A27.32,27.32,0,0,0,105.5,128a27,27,0,0,0,2.14,10.58,25.81,25.81,0,0,0,2.1,4,27.24,27.24,0,0,0,46.1,0,25.81,25.81,0,0,0,2.1-4A27,27,0,0,0,160.07,128,27.32,27.32,0,0,0,132.79,100.67Zm18.15,41.87a23.25,23.25,0,0,1-36.3,0,22.44,22.44,0,0,1-2.59-4,23.29,23.29,0,1,1,41.48,0A22.44,22.44,0,0,1,150.94,142.54Z"/><path class="cls-1" d="M221.77,136.33a33,33,0,0,0-4-.84,34.74,34.74,0,0,0-13.56.66,33.84,33.84,0,0,0-4,1.27A34.84,34.84,0,0,0,181.8,154a33.16,33.16,0,0,0-1.75,4A34.53,34.53,0,0,0,178,169.46v.31a34.67,34.67,0,1,0,43.78-33.44Zm-9.12,64.11a30.7,30.7,0,0,1-30.43-27,30,30,0,0,1-.23-3.69v-.31A30.41,30.41,0,0,1,186.37,154a30.83,30.83,0,0,1,13.84-12.25,28.87,28.87,0,0,1,4-1.45,30.15,30.15,0,0,1,8.44-1.19,30.67,30.67,0,1,1,0,61.33Z"/><polygon class="cls-1" points="218.6 166.67 228.47 166.67 228.47 170.67 215.22 170.67 215.22 188.28 211.22 188.28 211.22 170.67 198.82 170.67 198.82 166.67 207.82 166.67 202.93 162.04 199.94 159.22 198.65 158 196.63 156.1 198.62 154 199.38 153.19 200.21 153.97 202.29 155.95 204.21 157.75 205.19 158.69 213.22 166.25 217.76 161.96 217.81 161.91 221.76 158.18 221.81 158.14 227.06 153.19 229.81 156.1 221.81 163.64 221.76 163.69 218.6 166.67"/><polygon class="cls-1" points="136.99 126.49 145.16 126.49 145.16 129.51 134.44 129.51 134.44 142.78 131.43 142.78 131.43 129.51 121.34 129.51 121.34 126.49 128.88 126.49 120.44 118.53 122.5 116.33 132.93 126.18 143.35 116.33 145.43 118.53 136.99 126.49"/></g></g></svg>