<svg xmlns="http://www.w3.org/2000/svg" viewBox="0 0 256 256"><defs><style>.cls-1{fill:#1d384d;}</style></defs><title>cvv</title><g id="icons_without_caption" data-name="icons without caption"><g id="CVV"><path class="cls-1" d="M169.24,163.28v8.4a15.55,15.55,0,0,1-15.53,15.53H34.34a15.54,15.54,0,0,1-15.53-15.53V108.26A15.55,15.55,0,0,1,34.34,92.73H46.21v-4H34.34a19.56,19.56,0,0,0-19.53,19.53v63.42a19.55,19.55,0,0,0,19.53,19.53H153.71a19.55,19.55,0,0,0,19.53-19.53v-8.4Z"/><rect class="cls-1" x="57.6" y="120.7" width="31.66" height="4"/><rect class="cls-1" x="101.11" y="120.7" width="33.98" height="4"/><path class="cls-1" d="M200.64,103.62c-.42-.47-.86-.94-1.31-1.39a32.27,32.27,0,0,0-2.69-2.42,33.45,33.45,0,0,0-29.93-6.1,31.18,31.18,0,0,0-4.43,1.6,33,33,0,0,0-10.08,6.92,31.9,31.9,0,0,0-2.28,2.53,30.86,30.86,0,0,0-2.79,4,33.33,33.33,0,0,0,22.11,49.72,31.29,31.29,0,0,0,4,.55c.84.06,1.68.09,2.53.09A33,33,0,0,0,191.88,155a30.42,30.42,0,0,0,3.4-2.16c.23-.16.45-.33.67-.51s.44-.33.66-.51a5.63,5.63,0,0,0,.48-.4c.22-.17.44-.36.66-.56l.6-.54c.33-.31.66-.62,1-.94s.7-.71,1-1.08l.27-.3h0a1.3,1.3,0,0,0,.16-.18c.2-.21.39-.43.58-.66l.46-.57c.26-.32.51-.65.75-1a.36.36,0,0,0,.07-.1,29,29,0,0,0,2.29-3.59A33.36,33.36,0,0,0,200.64,103.62ZM201,140.7l-.38.61h0c-.43.7-.9,1.38-1.39,2.05l-.71.9c-.32.4-.65.79-1,1.17s-.59.63-.9.94l-.14.15c-.35.35-.7.68-1.06,1s-.72.65-1.1,1-.75.6-1.14.89-.8.58-1.21.85-1,.67-1.56,1a29.09,29.09,0,0,1-14.66,3.92c-.85,0-1.69,0-2.53-.11a28,28,0,0,1-4-.62A29.05,29.05,0,0,1,155,146.53a29.37,29.37,0,0,1-3.13-37.77,28.65,28.65,0,0,1,3.13-3.7l.31-.3a29,29,0,0,1,10.26-6.48,26.57,26.57,0,0,1,4.12-1.18,29.31,29.31,0,0,1,26.47,7.66l.31.3a28.35,28.35,0,0,1,4.14,5.22A29.37,29.37,0,0,1,201,140.7Z"/><path class="cls-1" d="M200.64,123.4a25.13,25.13,0,0,0-4-11.36,24.38,24.38,0,0,0-2.59-3.28c-.2-.22-.4-.43-.61-.64a25.09,25.09,0,0,0-4.16-3.36,24.79,24.79,0,0,0-13.51-4,25.23,25.23,0,0,0-3.9.3,24,24,0,0,0-3.93,1,24.35,24.35,0,0,0-5.69,2.71,25.09,25.09,0,0,0-4.16,3.36c-.21.21-.41.42-.61.64a25,25,0,0,0,11.76,41.17,24.3,24.3,0,0,0,4,.73,23.55,23.55,0,0,0,2.53.13,24.83,24.83,0,0,0,17.67-7.32,24.91,24.91,0,0,0,7.2-15.27A25.62,25.62,0,0,0,200.64,123.4Zm-4,9.31a22,22,0,0,1-20.87,15.08,21.22,21.22,0,0,1-2.53-.15,21.53,21.53,0,0,1-4-.83,22,22,0,0,1-9-36.57c.52-.52,1.07-1,1.63-1.48a21.77,21.77,0,0,1,7-3.85,3.67,3.67,0,0,1,.43-.15,21.09,21.09,0,0,1,3.46-.75,21.44,21.44,0,0,1,3-.21,21.87,21.87,0,0,1,13.92,5,20.7,20.7,0,0,1,1.63,1.48,21.84,21.84,0,0,1,5.32,8.64A22.09,22.09,0,0,1,196.64,132.71Z"/><path class="cls-1" d="M236.14,167.1l-31.2-25.21-3.1-2.5L201,140.7l-.38.61h0c-.43.7-.9,1.38-1.39,2.05l-.71.9c-.32.4-.65.79-1,1.17s-.59.65-.9,1l-.13.13h0c-.35.35-.7.69-1.06,1s-.72.65-1.1,1-.75.61-1.14.89-.8.58-1.21.85-1,.67-1.56,1l-1.07.66,2.52,3.12,1.66,2.06,2.58,3.18,21,25.95a13.56,13.56,0,1,0,19.07-19.07Zm-1.75,17.31a9.58,9.58,0,0,1-14.21-.75l-21.74-26.92-2.81-3.49-.35-.43c.23-.16.45-.33.67-.51s.44-.33.66-.51a5.63,5.63,0,0,0,.48-.4c.22-.17.44-.36.66-.56l.6-.54c.33-.31.66-.62,1-.94s.7-.71,1-1.08l.27-.3h0a1.3,1.3,0,0,0,.16-.18c.2-.21.39-.43.58-.66l.46-.57c.26-.32.51-.65.75-1a.36.36,0,0,0,.07-.1l.14-.18,30.84,24.91a9.57,9.57,0,0,1,.76,14.2Z"/><path class="cls-1" d="M164,125.18l4.55-6.21h-2.45l-3.31,4.59h-.06L159.47,119H157l4.57,6.22L157,131.54h2.36l3.41-4.57h0l3.39,4.57h2.39Z"/><path class="cls-1" d="M177.19,125.18l4.55-6.21h-2.45L176,123.56h-.06l-2.68-3.76-.59-.83h-2.46l3.05,4.15,1.52,2.07-1.52,2.12-3.05,4.24h2.36l.69-.92L176,127h0l3.39,4.57h2.39Z"/><path class="cls-1" d="M190.37,125.18l4.55-6.21h-2.45l-3.31,4.59h-.06L185.83,119h-2.46l4.57,6.22-4.57,6.36h2.36l3.41-4.57h.05l3.39,4.57H195Z"/><path class="cls-1" d="M181.11,64.8H61.74A19.55,19.55,0,0,0,42.21,84.33v63.42a19.55,19.55,0,0,0,19.53,19.53H181.11a19.48,19.48,0,0,0,15-7.06,18.81,18.81,0,0,0,2.32-3.48l-2.81-3.49a15.21,15.21,0,0,1-2.09,3.79,15.49,15.49,0,0,1-12.43,6.24H61.74a15.55,15.55,0,0,1-15.53-15.53v-39H151.9a28.65,28.65,0,0,1,3.13-3.7l.31-.3H46.21V85H196.64v19.76h-.45l.31.3a28.35,28.35,0,0,1,4.14,5.22V84.33A19.55,19.55,0,0,0,181.11,64.8ZM46.57,81A15.56,15.56,0,0,1,61.74,68.8H181.11A15.56,15.56,0,0,1,196.27,81Z"/><path class="cls-1" d="M79.62,135a10.61,10.61,0,0,0-6.19,2,10.64,10.64,0,1,0,0,17.27A10.63,10.63,0,1,0,79.62,135Zm-8.3,17.26a7.8,7.8,0,1,1,0-13.25,10.58,10.58,0,0,0,0,13.25Zm2.11-1.92a7.72,7.72,0,0,1,0-9.41,7.72,7.72,0,0,1,0,9.41Zm6.19,3.09a7.8,7.8,0,0,1-4.08-1.17,10.58,10.58,0,0,0,0-13.25,7.79,7.79,0,1,1,4.08,14.42Z"/></g></g></svg>