<svg xmlns="http://www.w3.org/2000/svg" viewBox="0 0 256 256"><defs><style>.cls-1{fill:#1d384d;}</style></defs><title>cyber identity</title><g id="icons_without_caption" data-name="icons without caption"><g id="CYBER_IDENTITY" data-name="CYBER IDENTITY"><path class="cls-1" d="M209.45,100.9c-32.53-42.55-76.33-44.7-84.78-44.7-.27,0-.59,0-.92,0h0s-.38,0-1.09,0c-8.45,0-52.26,2.15-84.78,44.7l-.93,1.21.93,1.22C70.4,145.87,114.2,148,122.65,148h2c8.45,0,52.26-2.16,84.78-44.7l.93-1.21ZM124.67,144h-2c-8,0-49.39-2-80.66-41.92C73.27,62.24,114.61,60.2,122.65,60.2h.91l.88,0,0,0h.18c8,0,49.39,2,80.66,41.92C174.06,142,132.71,144,124.67,144Z"/><path class="cls-1" d="M122.31,56.11A45.93,45.93,0,1,0,168.24,102,46,46,0,0,0,122.31,56.11Zm0,87.85A41.93,41.93,0,1,1,164.24,102,42,42,0,0,1,122.31,144Z"/><path class="cls-1" d="M122.31,86.43A15.61,15.61,0,1,0,137.92,102,15.63,15.63,0,0,0,122.31,86.43Zm0,27.22A11.61,11.61,0,1,1,133.92,102,11.62,11.62,0,0,1,122.31,113.65Z"/><path class="cls-1" d="M52.25,137.18a31.36,31.36,0,1,0,31.36,31.36A31.39,31.39,0,0,0,52.25,137.18Zm0,58.71a27.36,27.36,0,1,1,27.36-27.36A27.39,27.39,0,0,1,52.25,195.89Z"/><path class="cls-1" d="M62,160.58v-3a9.45,9.45,0,1,0-18.9,0h4a5.52,5.52,0,0,1,.15-1.29A5.45,5.45,0,0,1,58,157.55v3H39.1v23.31H65.39V160.58Zm-.6,19.31H43.1V164.58H61.39Z"/><path class="cls-1" d="M146.08,158.83v41.06h89V158.83Zm85,4v7.4h-81v-7.4Zm-81,33.06V174.23h81v21.66Z"/><path class="cls-1" d="M124.65,58.13l-.34.15V56.2h-4v90.53l.42.46,29.35,38v-22.4h21Zm21.43,100.7V173.5l-21.77-28.21V67.23L165,158.83Z"/></g></g></svg>