<svg xmlns="http://www.w3.org/2000/svg" viewBox="0 0 256 256"><defs><style>.cls-1{fill:#1d384d;}</style></defs><title>deposit</title><g id="icons_without_caption" data-name="icons without caption"><g id="DEPOSIT"><polygon class="cls-1" points="177.84 206.79 42.91 206.79 42.91 143.34 93.77 143.34 93.77 147.34 46.91 147.34 46.91 202.79 173.84 202.79 173.84 147.34 127.8 147.34 127.8 143.34 177.84 143.34 177.84 206.79"/><rect class="cls-1" x="88.97" y="178.41" width="39.22" height="4" transform="translate(-95.94 130.32) rotate(-45.2)"/><path class="cls-1" d="M100.2,163.27a7.23,7.23,0,1,0,7.19,7.23A7.22,7.22,0,0,0,100.2,163.27Zm0,10.45a3.23,3.23,0,1,1,3.19-3.22A3.21,3.21,0,0,1,100.2,173.72Z"/><path class="cls-1" d="M118.15,181.88a7.22,7.22,0,1,0,7.19,7.22A7.21,7.21,0,0,0,118.15,181.88Zm0,10.44a3.22,3.22,0,1,1,3.19-3.22A3.2,3.2,0,0,1,118.15,192.32Z"/><path class="cls-1" d="M132.85,133.95a20.26,20.26,0,0,0-.46-4h-4.1a18.2,18.2,0,0,1,.57,4c0,.2,0,.4,0,.6a18.49,18.49,0,1,1-18.5-18.5h.6a7.16,7.16,0,0,1,2.54-.47h9A22.31,22.31,0,0,0,110.37,112h0c-.22,0-.44,0-.66,0a22,22,0,0,0-8.51,1.95,22.49,22.49,0,0,0-11.52,29.32,21.69,21.69,0,0,0,2.22,4,22.48,22.48,0,0,0,37,0,21.69,21.69,0,0,0,2.22-4,22.38,22.38,0,0,0,1.79-8.79C132.87,134.35,132.87,134.15,132.85,133.95Z"/><rect class="cls-1" x="87.27" y="153.05" width="45.16" height="4"/><path class="cls-1" d="M112.57,133.91c-.56-.21-1.15-.4-1.78-.6-2.19-.72-3.79-1.33-3.79-3a2.24,2.24,0,0,1,1.75-2.21,7,7,0,0,1-1.46-1.78,4.23,4.23,0,0,0-2.58,3.3,4.49,4.49,0,0,0-.07.83c0,3.14,2.62,4,5.5,5,2.43.76,3.95,1.39,3.95,3.28,0,1.66-1.44,2.63-3.39,2.63a7.46,7.46,0,0,1-5.07-2.19l-1.38,1.65a9.21,9.21,0,0,0,5.39,2.58v3.21h1.76v-3.18c3.2-.26,5.09-2.15,5.09-4.84S114.89,134.77,112.57,133.91Z"/><path class="cls-1" d="M111,116.06h-.6a18.38,18.38,0,0,0-6.57,1.21,11,11,0,0,0-1.47,5.51,11.09,11.09,0,0,0,2.38,6.88,4.23,4.23,0,0,1,2.58-3.3A7.17,7.17,0,0,1,111,116.06Zm92.93-47a41,41,0,0,1-24.79-8.39,48.72,48.72,0,0,0-31.4-11.5H93.07a11.95,11.95,0,0,0,0,23.89h15.5a70.11,70.11,0,0,0-8.5,11.16L92.38,96.77l-.09.16a11.91,11.91,0,0,0,4.86,15.71,11.62,11.62,0,0,0,4,1.38,12.12,12.12,0,0,0,6.92-1,11.1,11.1,0,0,0-4.3,4.27,11,11,0,0,0-1.47,5.51,11.21,11.21,0,0,0,10.24,11.14c.31,0,.62,0,.94,0h47.23a44.9,44.9,0,0,0,24.7-7.38A40.93,40.93,0,0,1,208,119.85h5.14V69.1Zm-110.83,0a7.95,7.95,0,0,1,0-15.89h42.31l-13.66,8.85a71.87,71.87,0,0,0-9.11,7ZM110.37,112h0a10.82,10.82,0,0,0-1.59.6c.32-.18.63-.37.93-.58a11.78,11.78,0,0,0,3.91-4.48L121,95.92a50.83,50.83,0,0,1,14.76-15.17l2.21-1.48a15.67,15.67,0,0,1,16.23-.85A15.38,15.38,0,0,1,162.53,92v.34a19.26,19.26,0,0,1-19.24,19.24H113.51A10.84,10.84,0,0,0,110.37,112Zm98.72,3.8H208a44.9,44.9,0,0,0-24.7,7.38,40.93,40.93,0,0,1-22.51,6.72H113.51a7.15,7.15,0,0,1-4.76-1.82,7,7,0,0,1-1.46-1.78,7.19,7.19,0,0,1,6.22-10.76h29.78a23.27,23.27,0,0,0,23.24-23.24V92A19.33,19.33,0,0,0,156,74.88a19.63,19.63,0,0,0-20.32,1.07l-2.21,1.48a54.67,54.67,0,0,0-15.91,16.36l-7.42,11.76-.1.18a7.93,7.93,0,0,1-11,3.42,7.9,7.9,0,0,1-3.26-10.36l7.63-12.44A66.81,66.81,0,0,1,123.9,65.42l18.83-12.21h5A44.77,44.77,0,0,1,176.6,63.82a45,45,0,0,0,27.3,9.28h5.19Z"/></g></g></svg>