<svg xmlns="http://www.w3.org/2000/svg" viewBox="0 0 256 256"><defs><style>.cls-1{fill:#1d384d;}</style></defs><title>emergency fund</title><g id="icons_without_caption" data-name="icons without caption"><g id="EMERGENCY_FUND" data-name="EMERGENCY FUND"><path class="cls-1" d="M142.16,142.1V126.47h-22V142.1H104.48v22h15.64v15.64h22V164.14H157.8v-22Zm11.64,18H138.16v15.64h-14V160.14H108.48v-14h15.64V130.47h14V146.1H153.8Z"/><path class="cls-1" d="M206,102.46m0,41.28-4,0v55.5H60.33V130l-4-4v77.23H206V143.74l-4,0m0-41.31-141.62-.28V91.21H202v11.19l4,.06V87.21H56.33v15Z"/><path class="cls-1" d="M149.41,52.8H112.87a6.7,6.7,0,0,0-6.69,6.69V60a6.71,6.71,0,0,0,6.58,6.69h36.76A6.71,6.71,0,0,0,156.1,60v-.53A6.7,6.7,0,0,0,149.41,52.8Zm0,9.91H112.87A2.7,2.7,0,0,1,110.18,60v-.53a2.7,2.7,0,0,1,2.69-2.69h36.54a2.69,2.69,0,0,1,2.69,2.69V60A2.69,2.69,0,0,1,149.41,62.71Z"/><rect class="cls-1" x="108.76" y="63.82" width="4" height="12.72"/><rect class="cls-1" x="149.53" y="63.82" width="4" height="12.72"/><path class="cls-1" d="M97.2,99.88H56.36l-.09.09-4,4-1.41,1.42h0l-9.28,9.29L50.86,124l5.35,5.35,14.74,14.74L111,104l4-4,.09-.09Zm-4.42,4,0,.09a8.77,8.77,0,0,1-2.21,3.73,8.93,8.93,0,0,1-12.62,0A8.67,8.67,0,0,1,75.71,104l0-.09Zm-42.13,7.36a7.12,7.12,0,0,1,0,6.86l-3.43-3.43Zm16.75,23.6a7.31,7.31,0,0,1,6.86,0l-3.43,3.43Zm9.9-2.79a11.11,11.11,0,0,0-12.8-.1L53.55,121h0a11.11,11.11,0,0,0,0-12.66h0L57.92,104l.09-.09H71.57a.29.29,0,0,1,0,.09,12.89,12.89,0,0,0,25.28,0,.29.29,0,0,1,0-.09h8.58Z"/><path class="cls-1" d="M199.18,99.87H166.94v45.64H208.5V99.87Zm-2.79,4s0,.06,0,.09a8.35,8.35,0,0,1,.23,2A8.92,8.92,0,1,1,179,104s0-.06,0-.09Zm-25.45,37.64v-4.85a7.16,7.16,0,0,1,4.85,4.85Zm33.56,0h-5a7.15,7.15,0,0,1,2.47-3.63,3.33,3.33,0,0,1,.36-.26l.21-.14.32-.18.32-.17.34-.16.31-.13.52-.18.17-.06ZM202,133.28a11.14,11.14,0,0,0-6.57,8.23H179.89a11.13,11.13,0,0,0-8.95-8.94v-28.7h4s0,.06,0,.09a12.17,12.17,0,0,0-.16,2,12.92,12.92,0,0,0,25.84,0,12.17,12.17,0,0,0-.16-2s0-.06,0-.09h4v28.67A10.41,10.41,0,0,0,202,133.28Z"/><path class="cls-1" d="M47.85,74.54v29.33H214.43V74.54ZM210.43,99.87H51.85V78.54H210.43Z"/></g></g></svg>