<svg xmlns="http://www.w3.org/2000/svg" viewBox="0 0 256 256"><defs><style>.cls-1{fill:#1d384d;}</style></defs><title>gazelle</title><g id="icons_without_caption" data-name="icons without caption"><g id="GAZELLE"><path class="cls-1" d="M170.19,102.09,118.57,77.44l-.86-.2H70L32.25,52.72l-2.61,3,32.84,38,1.51.7h40l5.37,3,8.3,4.65,6.68,3.74,1,.26h44.41l.86-3.81ZM100.92,81.24,89.67,90.42H76.47L88,81.24ZM52,70.33l-2.76,2-7.42-8.59Zm-.14,5,3.73-2.68h0L64,78.12l-5.77,4.6h0L51.9,75.36Zm9,10.4,6.68-5.34.76.5,1.09.32H81.56l-11.5,9.19H64.91Zm43.64,4.67H96l11.25-9.19h10l2,.95L107.5,91.8h0l-2-1.12Zm6.72,3.48,12-9.82L133.42,89h0L120.66,99.18h0Zm13.18,7.38,13-10.41h0l10,4.75h0l-8.15,6.46H125.84Zm21.26.8,5.72-4.53h0l9.49,4.53Z"/><path class="cls-1" d="M125.81,102.09l-1.41-.79-3.76-2.1-9.41-5.27-1,1.75c-.32.58-.62,1.16-.89,1.76a22.9,22.9,0,0,0-1.18,15.79,23.71,23.71,0,0,0,1.18,3.25v30c.86,6.81-1,14.28-5.48,22.11-8.38,13.17-19.4,19.3-34.69,19.3h-2v15.36h96.05l-.53-2.42c-.89-4.08-3.23-7.54-5.29-10.59a42.27,42.27,0,0,1-2.86-4.61c-6.52-13-3-28,8.09-37.71,0,0,0,0,0,0,.17-.13.34-.28.51-.42l0,0a39.42,39.42,0,0,1,7.36-4.94l55.83-19.78V102.09ZM222.36,120l-53.3,18.88-.25.11a43.41,43.41,0,0,0-8.83,6,10.65,10.65,0,0,1-6.46,2.17,10.76,10.76,0,0,1-10.75-10.75h-4a14.77,14.77,0,0,0,14.75,14.75l.81,0A34.43,34.43,0,0,0,151,187.46a44.24,44.24,0,0,0,3.13,5.06,38.06,38.06,0,0,1,3.93,6.77H71.2v-7.39c15.56-.54,27.38-7.47,36.12-21.2,4.93-8.64,7-16.9,6-24.55V122.54a22.78,22.78,0,0,0,5.77,4.56l13,7.26,2-3.49-13-7.26a19,19,0,0,1-7.72-8,20.06,20.06,0,0,1-1.33-3.44,19,19,0,0,1-.09-10,18.15,18.15,0,0,1,.91-2.66l4.76,2.66,7.15,4L142.4,116l2-3.49-11.4-6.38h89.41Z"/><polygon class="cls-1" points="204.74 164.71 204.74 168.71 212.59 168.71 196.78 184.31 186.17 171.94 168.34 189.26 171.12 192.13 185.9 177.77 196.54 190.18 216.51 170.46 216.51 180.02 220.51 180.02 220.51 164.71 204.74 164.71"/></g></g></svg>