<svg xmlns="http://www.w3.org/2000/svg" viewBox="0 0 256 256"><defs><style>.cls-1{fill:#1d384d;}</style></defs><title>gold</title><g id="icons_without_caption" data-name="icons without caption"><g id="GOLD"><path class="cls-1" d="M223.87,167.62H204.76l-16.85-33.23H169l-16.85-33.23H109.07L92.22,134.38H70.5L53.65,167.62H32.13L13.25,204.85h229.5Zm-38.42-29.23,14.82,29.23H132.46l14.82-29.23h38.18ZM129.2,165.19l-13.59-26.81H142.8Zm-17.68-60H149.7l14.82,29.23H96.71ZM73,138.38h38.18l14.82,29.23H58.13ZM19.76,200.85l14.82-29.23H72.76l14.82,29.23Zm71.07-2.42L77.24,171.62h27.18Zm3.26,2.42,14.82-29.23h38.18l14.82,29.23Zm71.07-2.42-13.59-26.81h27.18Zm18.08-26.81h38.18l14.82,29.23H168.42Z"/><rect class="cls-1" x="128.61" y="51.15" width="4" height="20.4"/><rect class="cls-1" x="168.53" y="76.45" width="20.4" height="4" transform="translate(10.55 177.52) rotate(-54.2)"/><rect class="cls-1" x="195.81" y="115.81" width="20.4" height="4" transform="translate(-31.06 107.1) rotate(-27.18)"/><rect class="cls-1" x="50.67" y="107.61" width="4" height="20.4" transform="translate(-76.19 110.84) rotate(-62.81)"/><rect class="cls-1" x="81.48" y="68.25" width="4" height="20.4" transform="translate(-30.12 63.67) rotate(-35.81)"/></g></g></svg>