<svg xmlns="http://www.w3.org/2000/svg" viewBox="0 0 256 256"><defs><style>.cls-1{fill:#1d384d;}</style></defs><title>growth</title><g id="icons_without_caption" data-name="icons without caption"><g id="GROWTH"><rect class="cls-1" x="57.88" y="193.56" width="118.09" height="4"/><path class="cls-1" d="M58.4,99.33v18.94a5.17,5.17,0,0,1,2-.4,5.1,5.1,0,0,1,2,.4V103.33H82.87v78H62.4V128a5.1,5.1,0,0,1-2,.4,5.17,5.17,0,0,1-2-.4v57.39H86.87v-86Z"/><path class="cls-1" d="M101.81,70.84v10.9a4.91,4.91,0,0,1,1.09-.12,5.2,5.2,0,0,1,2.91.88V74.84h20.47V181.37H105.81V91.25a5.2,5.2,0,0,1-2.91.88,4.92,4.92,0,0,1-1.09-.12v93.36h28.47V70.84Z"/><path class="cls-1" d="M55.39,124.66l-1.86,1.58,2.6,3.05,1.81-1.54A5.2,5.2,0,0,1,55.39,124.66Z"/><path class="cls-1" d="M97.91,88.5l-3.18,2.71-9.55,8.12-4.7,4L65.93,115.7l-3.2,2.73a5.14,5.14,0,0,1,2.64,3l3.18-2.7,14.32-12.19,4-3.4,10.45-8.9,3.19-2.71A5.19,5.19,0,0,1,97.91,88.5Z"/><path class="cls-1" d="M144.46,84.88H107.77a5.32,5.32,0,0,1,.39,2,5.1,5.1,0,0,1-.4,2h36.71a5.1,5.1,0,0,1-.4-2A5.32,5.32,0,0,1,144.46,84.88Z"/><path class="cls-1" d="M184.13,58.44v4h13.68L169.52,84.88H154.19a5.32,5.32,0,0,1,.39,2,5.1,5.1,0,0,1-.4,2h16.73l29.94-23.74V79.62h4V58.44Z"/><polygon class="cls-1" points="147.32 58.44 147.32 79.78 151.32 79.78 151.32 62.44 171.79 62.44 171.79 97.25 171.79 181.36 151.32 181.36 151.32 94.13 147.32 94.13 147.32 185.36 175.79 185.36 175.79 97.25 175.79 58.44 147.32 58.44"/><path class="cls-1" d="M111.94,84.88a9.25,9.25,0,0,0-6.13-6.79,9,9,0,0,0-2.91-.47,7.88,7.88,0,0,0-1.09.07,9.26,9.26,0,0,0-8.16,9.19,9.14,9.14,0,0,0,1.08,4.33,9.25,9.25,0,0,0,2.59,3,9.15,9.15,0,0,0,4.49,1.81,7.89,7.89,0,0,0,1.09.07,9,9,0,0,0,2.91-.47,9.25,9.25,0,0,0,6.13-6.78,9.2,9.2,0,0,0,0-4Zm-6.13,6.37a5.2,5.2,0,0,1-2.91.88,4.92,4.92,0,0,1-1.09-.12,4.49,4.49,0,0,1-1.3-.47,5.19,5.19,0,0,1-2.6-3,5.09,5.09,0,0,1-.26-1.62,5.25,5.25,0,0,1,4.16-5.14,4.91,4.91,0,0,1,1.09-.12,5.2,5.2,0,0,1,2.91.88,5.22,5.22,0,0,1,2.35,4.38,5.1,5.1,0,0,1-.4,2A5.27,5.27,0,0,1,105.81,91.25Z"/><path class="cls-1" d="M158.36,84.88a9.27,9.27,0,0,0-9-7.26,8.76,8.76,0,0,0-2,.23,9.26,9.26,0,1,0,11,7Zm-4.18,4a5.25,5.25,0,0,1-9.71,0,5.1,5.1,0,0,1-.4-2,5.26,5.26,0,1,1,10.51,0A5.1,5.1,0,0,1,154.18,88.88Z"/><path class="cls-1" d="M68.55,118.74a9.34,9.34,0,0,0-2.62-3,9.1,9.1,0,0,0-3.53-1.61,8.82,8.82,0,0,0-2-.22,9.26,9.26,0,0,0,0,18.51,8.81,8.81,0,0,0,2-.22,9.25,9.25,0,0,0,7.26-9A9.14,9.14,0,0,0,68.55,118.74ZM62.4,128a5.1,5.1,0,0,1-2,.4,5.17,5.17,0,0,1-2-.4,2.78,2.78,0,0,1-.46-.22,5.2,5.2,0,0,1-2.55-3.09,4.91,4.91,0,0,1-.24-1.54,5.27,5.27,0,0,1,3.25-4.86,5.17,5.17,0,0,1,2-.4,5.1,5.1,0,0,1,2,.4,1.68,1.68,0,0,1,.33.16,5.14,5.14,0,0,1,2.64,3,5,5,0,0,1,.29,1.69A5.24,5.24,0,0,1,62.4,128Z"/></g></g></svg>