<svg xmlns="http://www.w3.org/2000/svg" viewBox="0 0 256 256"><defs><style>.cls-1{fill:#1d384d;}</style></defs><title>home loan</title><g id="icons_without_caption" data-name="icons without caption"><g id="HOME_LOAN" data-name="HOME LOAN"><path class="cls-1" d="M70,121.57H66v30.85a24,24,0,0,1,4,1.06Z"/><path class="cls-1" d="M187,121.57V202H70v-1.23a24,24,0,0,1-4,1.06V206H191V121.57Z"/><path class="cls-1" d="M110.37,165.52V206h38V165.52Zm34,36.49h-30V169.52h30Z"/><path class="cls-1" d="M184.45,92l-4-3L161.38,74.6l-4-3L128.53,49.76l-95,71.81h190ZM128.53,54.78l28.85,21.81h0l27.07,20.46,27.13,20.51H45.47Z"/><path class="cls-1" d="M70,149.27a26.68,26.68,0,0,0-4-.91,28.17,28.17,0,0,0-4.43-.34,29.11,29.11,0,1,0,0,58.22A28.17,28.17,0,0,0,66,205.9a29.13,29.13,0,0,0,24.68-28.77A29.16,29.16,0,0,0,70,149.27Zm0,51.51a25.43,25.43,0,0,1-8.43,1.46,25.11,25.11,0,1,1,0-50.22A25.43,25.43,0,0,1,70,153.48a25.11,25.11,0,0,1,0,47.3Z"/><path class="cls-1" d="M70,180.34a6.82,6.82,0,0,0-4-3.64,35.49,35.49,0,0,0-3.81-1.37c-3.19-1-5.51-1.92-5.51-4.31,0-2.23,1.87-3.48,4.54-3.48A11.22,11.22,0,0,1,66,168.8a11.09,11.09,0,0,1,1.65,1l1.92-2.37A14.14,14.14,0,0,0,66,165.48a16,16,0,0,0-2.94-.83v-5H60.55v4.83c-4.66.22-7.26,3-7.26,6.75,0,4.55,3.81,5.86,8,7.2,2.15.67,3.81,1.27,4.77,2.26a3.62,3.62,0,0,1,0,4.91A5.41,5.41,0,0,1,62.1,187a10.83,10.83,0,0,1-7.37-3.17l-2,2.38A13.24,13.24,0,0,0,60.55,190v4.66H63.1V190a10.76,10.76,0,0,0,2.94-.64,6.56,6.56,0,0,0,4-3.82,7,7,0,0,0,.45-2.55A7.17,7.17,0,0,0,70,180.34Z"/><path class="cls-1" d="M157.38,55.22V76.6l27.07,20.46V55.22Zm4,19.39V59.22h19.07V89Z"/></g></g></svg>