<svg xmlns="http://www.w3.org/2000/svg" viewBox="0 0 256 256"><defs><style>.cls-1{fill:#1d384d;}</style></defs><title>identity theft</title><g id="icons_without_caption" data-name="icons without caption"><g id="IDENTITY_THEFT" data-name="IDENTITY THEFT"><rect class="cls-1" x="89.1" y="178.85" width="39.04" height="4"/><path class="cls-1" d="M130.82,140.52l0-.17-.41-.42-.24-.23-1-1.05,0,0a14.65,14.65,0,0,0-5.63-3.05,29.5,29.5,0,0,1-1.59,3.72A10.42,10.42,0,0,1,130,149.57v15h-6V154.3h-4v10.31H99.3V156.9a33.26,33.26,0,0,1-4,.63v7.08h-6v-7a31.33,31.33,0,0,1-4-.58v11.63H134v-19A14.65,14.65,0,0,0,130.82,140.52Z"/><path class="cls-1" d="M114.08,99.33l0,0h.7l22.91,0Z"/><path class="cls-1" d="M214.06,71.59a50.66,50.66,0,0,1-23.59-5.81c-6.07-3.21-15.28-7-24.72-7a32.76,32.76,0,0,0-14.34,3.58c-7.43,3.62-13.88,9.44-18.09,13.5-4,3.81-6.41,6.23-9,8.81a14.38,14.38,0,0,1,1,4.65c3.28-3.36,5.87-5.92,10.7-10.58,4-3.87,10.15-9.41,17.07-12.78a28.71,28.71,0,0,1,12.59-3.18c8.62,0,17.18,3.57,22.85,6.56a54.65,54.65,0,0,0,25.46,6.28h11.28v42.77a45,45,0,0,0-22.94,7.34,39.69,39.69,0,0,1-21.71,6.74h-48a7.19,7.19,0,0,1-7.16-7.67,7.36,7.36,0,0,1,7.48-6.7h29.46c7.41,0,14.13-2.8,18.43-7.67,4.92-5.58,6.37-13.87,3.54-20.17a18.22,18.22,0,0,0-17.62-10.48c-8.67.58-14.6,5.37-19.94,10.23-.5.45-1.28,1.19-2.14,2-1.1,1-2.81,2.67-3.61,3.35h-3.16a11.35,11.35,0,0,1,6.64,2.26c.7-.64,1.62-1.51,2.88-2.7.83-.79,1.6-1.52,2.08-2,5-4.57,10.13-8.7,17.52-9.2a14.22,14.22,0,0,1,13.7,8.13c2.21,4.91,1,11.45-2.89,15.88-3.54,4-9.16,6.32-15.43,6.32H133a11.65,11.65,0,0,0-8.29,3.43,11,11,0,0,0-3.18,7,11.13,11.13,0,0,0,2.83,8.22l.16.17a11.22,11.22,0,0,0,8.16,3.54h48a43.63,43.63,0,0,0,23.9-7.4,40.94,40.94,0,0,1,22.49-6.71h2.26V71.59Z"/><path class="cls-1" d="M96.15,95.32h.12A.25.25,0,0,0,96.15,95.32Zm23.39,0,0,0h5.89v0Z"/><path class="cls-1" d="M125.39,89.29a14.38,14.38,0,0,0-1-4.65,14.63,14.63,0,0,0-28.21,5.43v1.2a35.62,35.62,0,0,1,4,.74V90.07a10.63,10.63,0,0,1,21-2.18,10.4,10.4,0,0,1,.23,2.18v5.26h4V90.07C125.41,89.81,125.4,89.55,125.39,89.29Z"/><path class="cls-1" d="M113.81,87.39a3,3,0,1,1-3-3A3,3,0,0,1,113.81,87.39Z"/><path class="cls-1" d="M74.64,147.94a2.64,2.64,0,0,0,.34.24h0A4,4,0,0,1,74.64,147.94Z"/><path class="cls-1" d="M73.33,151.91c-.26-.17-.51-.34-.76-.53l-3.24,4L47.66,182.22a9.56,9.56,0,1,1-13.44-13.45L65,143.86l.14.18a30.16,30.16,0,0,1-2.28-3.59L31.7,165.66a13.56,13.56,0,1,0,19.07,19.07l18.56-23,4-4.95L76,153.54A27.56,27.56,0,0,1,73.33,151.91Z"/><path class="cls-1" d="M121.49,124.51a11,11,0,0,1,3.18-7,33,33,0,0,0-9-16.71q-.75-.75-1.53-1.44l0,0q-1.08-1-2.22-1.8a30.67,30.67,0,0,0-3.39-2.2A32.73,32.73,0,0,0,100.15,92a35.62,35.62,0,0,0-4-.74A34.3,34.3,0,0,0,92.08,91a33.31,33.31,0,0,0-29.17,49.42A30.16,30.16,0,0,0,65.19,144a.18.18,0,0,0,0,.07q.45.62.93,1.2a.75.75,0,0,0,.14.17c.25.32.52.63.8.94l.37.42c.33.37.68.73,1,1.08s.54.53.82.78h0l.15.14c.16.15.33.3.49.43a9.82,9.82,0,0,0,.79.68c.17.16.35.3.53.44a5.16,5.16,0,0,0,.48.37q.38.3.75.57l0,0c.25.19.5.36.76.53A27.56,27.56,0,0,0,76,153.54a32.64,32.64,0,0,0,9.3,3.44,31.33,31.33,0,0,0,4,.58c.93.08,1.87.12,2.81.12s2.16-.05,3.22-.15a33.33,33.33,0,0,0,26.54-18.19,29.5,29.5,0,0,0,1.59-3.72,26.76,26.76,0,0,0,.89-2.89A11.13,11.13,0,0,1,121.49,124.51Zm-2.11,10.55a24.2,24.2,0,0,1-1.14,2.55c-.24.49-.5,1-.78,1.45a22.54,22.54,0,0,1-1.28,2,28.36,28.36,0,0,1-3.36,4,29.18,29.18,0,0,1-20.74,8.58c-.94,0-1.88,0-2.81-.13a28,28,0,0,1-4-.67,28.41,28.41,0,0,1-7.92-3.16c-.27-.15-.54-.31-.8-.49a17.86,17.86,0,0,1-1.57-1,2.64,2.64,0,0,1-.34-.24c-.45-.33-.88-.67-1.31-1h0c-.26-.2-.51-.42-.76-.65s-.3-.26-.44-.4l-.18-.16-.18-.17h0l-.43-.41c-.4-.4-.79-.81-1.16-1.23s-.58-.66-.85-1-.59-.74-.87-1.12a29.33,29.33,0,0,1,.92-36,28.44,28.44,0,0,1,2-2.17A29.32,29.32,0,0,1,92.08,95a27.56,27.56,0,0,1,4.07.29.25.25,0,0,1,.12,0,29.23,29.23,0,0,1,16.55,8.29A29.38,29.38,0,0,1,119.38,135.06Z"/><path class="cls-1" d="M111.25,114.72a14.25,14.25,0,0,0-2.88-4.25,13.89,13.89,0,1,0,2.88,4.25ZM104,128.55a9.74,9.74,0,0,1-4,1.61,8.71,8.71,0,0,1-1.62.14,10,10,0,0,1,0-20,9.91,9.91,0,0,1,5.26,1.5,10.19,10.19,0,0,1,3.11,3A10,10,0,0,1,104,128.55Z"/><path class="cls-1" d="M145.25,185.72a7.54,7.54,0,0,1-7.53,7.53H80.87a7.54,7.54,0,0,1-7.54-7.53V156.81l-4,4.95v24a11.55,11.55,0,0,0,11.54,11.53h56.85a11.54,11.54,0,0,0,11.53-11.53V136.44h-4Z"/><path class="cls-1" d="M144.56,97.59a11.35,11.35,0,0,0-6.64-2.26H108.47a30.67,30.67,0,0,1,3.39,2.2q1.14.84,2.22,1.8h23.7a7.55,7.55,0,0,1,7.47,7.54v7.2h4v-7.2A11.5,11.5,0,0,0,144.56,97.59Z"/><path class="cls-1" d="M71.34,145.1l.43.41h0l.18.17.18.16c.14.14.29.27.44.4s.5.45.76.65v-40a7.55,7.55,0,0,1,7.54-7.54h26.51a28.88,28.88,0,0,0-11.11-4H87.89a29.07,29.07,0,0,0-16.55,8.29,28.44,28.44,0,0,0-2,2.17c0,.36,0,.72,0,1.08v36c.27.34.56.67.85,1S70.94,144.7,71.34,145.1Z"/><path class="cls-1" d="M74.64,147.94a2.64,2.64,0,0,0,.34.24h0A4,4,0,0,1,74.64,147.94Z"/><path class="cls-1" d="M110.8,135.89H87.24l-1,0a17.34,17.34,0,0,0-12.61,6.52c-.12.15-.24.31-.35.47v4c.43.36.86.7,1.31,1a4,4,0,0,0,.34.23,12.38,12.38,0,0,1,1.84-3.26,13.35,13.35,0,0,1,9.68-5c.5,0,1,0,1.51,0h.64a1.34,1.34,0,0,0,.09.26A10.47,10.47,0,0,0,91,143.76a10.83,10.83,0,0,0,8.15,3.19c6.5,0,9.66-4,10.81-7.06h.8a13.22,13.22,0,0,1,5.41,1.17,22.54,22.54,0,0,0,1.28-2c.28-.48.54-1,.78-1.45A17,17,0,0,0,110.8,135.89Zm-11.64,7.06a7,7,0,0,1-5.33-2,6.09,6.09,0,0,1-.79-1h12.47C104.56,141.35,102.7,142.95,99.16,142.95Z"/></g></g></svg>