<svg xmlns="http://www.w3.org/2000/svg" viewBox="0 0 256 256"><defs><style>.cls-1{fill:#1d384d;}</style></defs><title>insurance</title><g id="icons_without_caption" data-name="icons without caption"><g id="INSURANCE"><rect class="cls-1" x="175.75" y="65.26" width="7.69" height="4" transform="translate(26.54 182.81) rotate(-57.58)"/><path class="cls-1" d="M97.54,192.77a9.43,9.43,0,0,1-7.94-14.48l3.6-5.66,3.38,2.14L93,180.44a5.42,5.42,0,1,0,9.15,5.81L152,107l3.39,2.13-49.85,79.25a9.45,9.45,0,0,1-8,4.38Z"/><path class="cls-1" d="M178.61,68.82A66.9,66.9,0,0,0,86.27,89.42l.05,0c-.24.34-.49.66-.72,1L89,92.62a19.63,19.63,0,0,1,34.19,19.18c-.63,1.09-1,1.8-1.12,2l1.77.94,1.68,1.07a19.63,19.63,0,1,1,33.15,21.05l1.69,1.07,1.6,1.2c.14-.19.62-.83,1.34-1.87a19.63,19.63,0,0,1,31.89,22.8l3.38,2.14q.33-.53.64-1.06l0,0A67,67,0,0,0,178.61,68.82ZM118.22,83.19a23.47,23.47,0,0,0-17.82-3.12c-.66.15-1.3.33-1.94.53a62.92,62.92,0,0,1,72.48-11.54c-18.21,3.36-33.37,21.18-41.78,33.31A23.63,23.63,0,0,0,118.22,83.19Zm36.52,23.2a23.47,23.47,0,0,0-17.82-3.12,23.86,23.86,0,0,0-4.46,1.47c8.82-12.64,25.19-31.76,43.8-32.22,7.48,17-2.87,40-10.56,53.34a23.86,23.86,0,0,0-.57-4.66A23.48,23.48,0,0,0,154.75,106.39Zm36.52,23.2a23.63,23.63,0,0,0-22-1.75c7.4-12.77,17.08-34.07,12.39-52A63,63,0,0,1,202,146.35,23.59,23.59,0,0,0,191.27,129.59Z"/><path class="cls-1" d="M156.53,197.63a23.93,23.93,0,1,1,23.93-23.93A24,24,0,0,1,156.53,197.63Zm0-43.86a19.93,19.93,0,1,0,19.93,19.93A20,20,0,0,0,156.53,153.77Z"/><path class="cls-1" d="M163.71,178.43c0,3.15-2.22,5.37-6,5.67v3.74h-2.07v-3.77a10.77,10.77,0,0,1-6.32-3l1.61-1.93a8.78,8.78,0,0,0,6,2.56c2.28,0,4-1.13,4-3.08,0-2.22-1.78-3-4.63-3.85-3.38-1.09-6.46-2.14-6.46-5.82,0-3,2.1-5.28,5.87-5.46v-3.91h2.07v4a12.64,12.64,0,0,1,5.27,2.25l-1.55,1.92a9.59,9.59,0,0,0-5.21-1.83c-2.16,0-3.67,1-3.67,2.82s1.87,2.64,4.45,3.49c3.8,1.21,6.68,2.22,6.68,6.19Z"/><path class="cls-1" d="M97.7,148.24a19.74,19.74,0,1,1,19.74-19.74A19.76,19.76,0,0,1,97.7,148.24Zm0-35.48a15.74,15.74,0,1,0,15.74,15.74A15.76,15.76,0,0,0,97.7,112.76Z"/><path class="cls-1" d="M103.51,132.33c0,2.55-1.79,4.34-4.83,4.59v3H97v-3.05a8.71,8.71,0,0,1-5.11-2.45l1.31-1.56A7.1,7.1,0,0,0,98,135c1.84,0,3.21-.92,3.21-2.49,0-1.79-1.44-2.39-3.75-3.11-2.73-.88-5.22-1.73-5.22-4.71,0-2.43,1.7-4.27,4.75-4.42v-3.16h1.67v3.27a10.22,10.22,0,0,1,4.26,1.82l-1.26,1.55a7.76,7.76,0,0,0-4.21-1.48c-1.74,0-3,.82-3,2.28s1.51,2.14,3.6,2.82c3.08,1,5.41,1.79,5.41,5Z"/><path class="cls-1" d="M61.32,171.28a14.94,14.94,0,1,1,14.94-14.94A15,15,0,0,1,61.32,171.28Zm0-25.89a10.94,10.94,0,1,0,10.94,10.94A11,11,0,0,0,61.32,145.39Z"/><path class="cls-1" d="M65.56,159.12c0,1.86-1.31,3.17-3.53,3.35v2.21H60.81v-2.23a6.36,6.36,0,0,1-3.73-1.79l1-1.14A5.18,5.18,0,0,0,61.55,161c1.34,0,2.34-.67,2.34-1.82,0-1.31-1.05-1.74-2.73-2.27-2-.64-3.81-1.26-3.81-3.44,0-1.77,1.24-3.12,3.46-3.22V148H62v2.39a7.46,7.46,0,0,1,3.11,1.33l-.92,1.13a5.66,5.66,0,0,0-3.07-1.08c-1.27,0-2.16.6-2.16,1.67s1.1,1.56,2.63,2.06c2.24.71,3.94,1.31,3.94,3.65Z"/></g></g></svg>