<svg xmlns="http://www.w3.org/2000/svg" viewBox="0 0 256 256"><defs><style>.cls-1{fill:#1d384d;}</style></defs><title>interest rates</title><g id="icons_without_caption" data-name="icons without caption"><g id="INTEREST_RATES" data-name="INTEREST RATES"><polygon class="cls-1" points="97.39 133.6 97.39 137.6 105.42 137.6 89.31 154.29 75.52 142.37 49.29 169.26 52.15 172.06 75.75 147.86 89.56 159.79 109.17 139.48 109.17 148.92 113.17 148.92 113.17 133.6 97.39 133.6"/><path class="cls-1" d="M194.55,81.48l-71.26,92.79h20.85l70-92.79Zm-52.41,88.79H131.4l65.12-84.79h9.62Z"/><path class="cls-1" d="M145.62,92.81a6.72,6.72,0,1,0,6.71,6.71A6.72,6.72,0,0,0,145.62,92.81Zm0,9.43a2.72,2.72,0,1,1,2.71-2.72A2.72,2.72,0,0,1,145.62,102.24Zm0-9.43a6.72,6.72,0,1,0,6.71,6.71A6.72,6.72,0,0,0,145.62,92.81Zm0,9.43a2.72,2.72,0,1,1,2.71-2.72A2.72,2.72,0,0,1,145.62,102.24Zm0-20.76a18,18,0,1,0,18,18A18.06,18.06,0,0,0,145.62,81.48Zm0,32.09a14,14,0,1,1,14-14A14.06,14.06,0,0,1,145.62,113.57Zm0-20.76a6.72,6.72,0,1,0,6.71,6.71A6.72,6.72,0,0,0,145.62,92.81Zm0,9.43a2.72,2.72,0,1,1,2.71-2.72A2.72,2.72,0,0,1,145.62,102.24Z"/><path class="cls-1" d="M75.69,114.67a15.43,15.43,0,1,1-1.92-14.56,19.54,19.54,0,0,1,1.66-4.25,19,19,0,0,0-3.08-2.66,19.43,19.43,0,1,0,3.74,28.52,19.08,19.08,0,0,0,2.3-3.37A19.15,19.15,0,0,1,75.69,114.67Z"/><path class="cls-1" d="M92.7,81.48A23.55,23.55,0,0,0,72.35,93.2a22.88,22.88,0,0,0-1.75,3.67A23.53,23.53,0,0,0,69.14,105a21.2,21.2,0,0,0,.1,2.12,22.93,22.93,0,0,0,.71,4,23.4,23.4,0,0,0,3.51,7.45,22.91,22.91,0,0,0,2.63,3.11A23.55,23.55,0,1,0,92.7,81.48Zm0,43.11a19.5,19.5,0,0,1-14.31-6.24A19.58,19.58,0,0,1,73.14,105,19.56,19.56,0,1,1,92.7,124.59Z"/><path class="cls-1" d="M194.11,149.86a6.61,6.61,0,1,0,6.61,6.61A6.62,6.62,0,0,0,194.11,149.86Zm0,9.22a2.61,2.61,0,1,1,2.61-2.61A2.61,2.61,0,0,1,194.11,159.08Zm0-9.22a6.61,6.61,0,1,0,6.61,6.61A6.62,6.62,0,0,0,194.11,149.86Zm0,9.22a2.61,2.61,0,1,1,2.61-2.61A2.61,2.61,0,0,1,194.11,159.08Zm0-20.65a18,18,0,1,0,18,18A18.07,18.07,0,0,0,194.11,138.43Zm0,32.09a14,14,0,1,1,14-14.05A14.07,14.07,0,0,1,194.11,170.52Zm0-20.66a6.61,6.61,0,1,0,6.61,6.61A6.62,6.62,0,0,0,194.11,149.86Zm0,9.22a2.61,2.61,0,1,1,2.61-2.61A2.61,2.61,0,0,1,194.11,159.08Z"/><polygon class="cls-1" points="103.59 103.04 94.7 103.04 94.7 94.15 90.7 94.15 90.7 103.04 81.81 103.04 81.81 107.04 90.7 107.04 90.7 115.92 94.7 115.92 94.7 107.04 103.59 107.04 103.59 103.04"/><rect class="cls-1" x="52.47" y="107.16" width="17.61" height="4"/></g></g></svg>