<svg xmlns="http://www.w3.org/2000/svg" viewBox="0 0 256 256"><defs><style>.cls-1{fill:#1d384d;}</style></defs><title>japanese yen</title><g id="icons_without_caption" data-name="icons without caption"><g id="JAPANESE_YEN" data-name="JAPANESE YEN"><path class="cls-1" d="M132.79,155.26A27.29,27.29,0,1,1,160.08,128,27.32,27.32,0,0,1,132.79,155.26Zm0-50.58A23.29,23.29,0,1,0,156.08,128,23.32,23.32,0,0,0,132.79,104.67Z"/><path class="cls-1" d="M212.65,204.44a34.67,34.67,0,1,1,34.67-34.67A34.71,34.71,0,0,1,212.65,204.44Zm0-65.33a30.67,30.67,0,1,0,30.67,30.67A30.7,30.7,0,0,0,212.65,139.11Z"/><polygon class="cls-1" points="229.66 156.1 226.91 153.19 213.07 166.25 199.24 153.19 196.49 156.1 207.69 166.67 198.68 166.67 198.68 170.67 211.07 170.67 211.07 176.65 198.68 176.65 198.68 180.65 211.07 180.65 211.07 188.28 215.07 188.28 215.07 180.65 228.33 180.65 228.33 176.65 215.07 176.65 215.07 170.67 228.33 170.67 228.33 166.67 218.46 166.67 229.66 156.1"/><polygon class="cls-1" points="145.28 118.53 143.22 116.33 132.79 126.18 122.36 116.33 120.29 118.53 128.73 126.49 121.2 126.49 121.2 129.51 131.28 129.51 131.28 133.61 121.2 133.61 121.2 136.63 131.28 136.63 131.28 142.78 134.29 142.78 134.29 136.63 145.02 136.63 145.02 133.61 134.29 133.61 134.29 129.51 145.02 129.51 145.02 126.49 136.84 126.49 145.28 118.53"/><path class="cls-1" d="M204.21,82.47V67H186.65V51.56H8.69v91H26.25V158H43.81v15.46H178.19a34.54,34.54,0,0,1-.2-3.69v-.31H68.9a23.18,23.18,0,0,0-18.67-21.13,21.38,21.38,0,0,0-2.42-.34V107.54A23.17,23.17,0,0,0,68.87,86.47H196.76c0,.31.05.62.1.92a22.35,22.35,0,0,0,1,4.35,22.79,22.79,0,0,0,2.37,5,23.1,23.1,0,0,0,17.56,10.78v28a33,33,0,0,1,4,.84V82.47ZM182.7,55.56V67H171.09a19.13,19.13,0,0,1-5.44-11.46Zm-170,0h17a19.19,19.19,0,0,1-17,17Zm13.56,82.57H12.69V121.08A19.17,19.17,0,0,1,26.25,129Zm0-15.13a23.07,23.07,0,0,0-13.56-5.93V76.62a23.07,23.07,0,0,0,13.56-5.93Zm7.5-67.44H161.64A22.83,22.83,0,0,0,165.89,67H29.51A22.91,22.91,0,0,0,33.75,55.56Zm10.06,82.9a23.13,23.13,0,0,0-11.14-5.59,21.35,21.35,0,0,0-2.42-.34V92.08a23.07,23.07,0,0,0,13.56-5.93ZM30.25,88.06V71H47.3A19.19,19.19,0,0,1,30.25,88.06Zm13.56,65.53H30.25v-17a19.23,19.23,0,0,1,12,6,17.89,17.89,0,0,1,1.56,1.9Zm7.4-.92a19.24,19.24,0,0,1,13.65,16.38h-17V152A19.12,19.12,0,0,1,51.21,152.67Zm-3.4-49.15V86.47h17A19.18,19.18,0,0,1,47.81,103.52Zm-.74-21.05A22.78,22.78,0,0,0,51.31,71H179.2a9,9,0,0,0,.1.91,21.79,21.79,0,0,0,1,4.35,22.77,22.77,0,0,0,2.37,5c.24.4.51.8.79,1.18Zm141.57,0a18.91,18.91,0,0,1-2-2.37,18.51,18.51,0,0,1-1.92-3.39A18.77,18.77,0,0,1,183.21,71h17.05V82.47Zm15.57,13.09a19.29,19.29,0,0,1-3.44-9.09h17v17A19.13,19.13,0,0,1,204.21,95.56Z"/></g></g></svg>