<svg xmlns="http://www.w3.org/2000/svg" viewBox="0 0 256 256"><defs><style>.cls-1{fill:#1d384d;}</style></defs><title>leasing</title><g id="icons_without_caption" data-name="icons without caption"><g id="LEASING"><path class="cls-1" d="M175,155.3a12,12,0,0,0-14.89-7.95l-9.23,2.8h0l-11.27,3.43h-.07l-17.1,5.2h0l-4.52,1.37c.18-.4.34-.81.49-1.24a12,12,0,0,0-7.57-15.1L68.68,129.77a50.27,50.27,0,0,0-30.74-.41l-13.68,5.21.05,50.29,12.57-3.28c7.13-2.17,9.72-1.21,15.39.9,1.51.55,3.21,1.19,5.24,1.85l11.55,3.76.17.05h0c.36.08,4,.92,9,1.68l.46.07.58.08c1.87.27,3.88.52,6,.71l.24,0h0c1.38.12,2.77.22,4.17.28l.79,0,1.46,0h.63c.45,0,.9,0,1.34,0H94c.76,0,1.52-.06,2.26-.11h.14l.34,0,1.08-.11.45-.06,1-.14.43-.07,1-.2.29-.06c.43-.1.86-.21,1.27-.34l31.5-9.58,12.77-3.88h0L157.78,173l.37-.13,8.85-2.69A12,12,0,0,0,175,155.3ZM158,154.58a7.93,7.93,0,0,1-1,14.47l-3.19,1a11.93,11.93,0,0,0-4.61-15.19L152,154A7.91,7.91,0,0,1,158,154.58Zm-99.3,25.95c-1.95-.64-3.62-1.26-5.09-1.8-5.94-2.21-9.52-3.54-17.86-1l-7.49,2,0-42.37,10.9-4.16a46.35,46.35,0,0,1,28.25.41l42.12,14.06a7.95,7.95,0,1,1-5,15.08l-27.68-9.2-1.26,3.8,27.68,9.2a11.82,11.82,0,0,0,7.48,0h0l12.83-3.9h0L129,161l11.61-3.53a7.94,7.94,0,0,1,4.68,15.18L101.1,186.07l-.35.09-.69.18-.5.11-.66.13-.5.08-.73.1-.53.06-.63.06-.68.06-1.47.08-.77,0H91.24l-.72,0-1.17,0L88,186.9l-.43,0c-1.25-.09-2.49-.2-3.72-.35-.63-.06-1.26-.14-1.88-.22-1.09-.14-2.13-.29-3.12-.44h0l-.74-.12-.49-.08-.8-.13-2.18-.38-1.83-.35-1.37-.28-.4-.08-.89-.2Zm107.1-14.16-.7.21a11.88,11.88,0,0,0-4.63-15.18l.71-.22a7.94,7.94,0,1,1,4.62,15.18Z"/><path class="cls-1" d="M186.79,96.41a18.26,18.26,0,0,0-17.62-10.48c-8.67.58-14.6,5.37-19.94,10.23l-.41.37c-.22-.19-.44-.38-.66-.55a23.25,23.25,0,0,1,3.41,3.46l.35-.32c5-4.56,10.13-8.7,17.52-9.19A14.19,14.19,0,0,1,183.14,98c2.22,4.91,1,11.45-2.88,15.89-3.55,4-9.18,6.32-15.44,6.32h-13a19.56,19.56,0,0,1-1.82,4h14.84c7.41,0,14.13-2.8,18.44-7.68C188.17,111,189.63,102.7,186.79,96.41ZM148.16,96a19.47,19.47,0,0,0-1.82-1.36A22.07,22.07,0,0,1,148.16,96Zm68.31-18.21A50.67,50.67,0,0,1,192.87,72c-6.06-3.2-15.27-7-24.72-7a32.77,32.77,0,0,0-14.34,3.57C146.36,72.15,139.92,78,135.72,82c-4.5,4.34-7.06,6.86-9.86,9.72l-.34.35-5.43,5.55,7.43-2.24q.69-.21,1.41-.36a19.69,19.69,0,0,1,7.23-.23,19.11,19.11,0,0,1,9.46,4.25c.24.19.48.4.71.62s.46.42.68.65.23.23.35.35l1.38,1.45,1.45-1.39c.52-.5,1-.95,1.38-1.3l.35-.32c5-4.56,10.13-8.7,17.52-9.19A14.19,14.19,0,0,1,183.14,98c2.22,4.91,1,11.45-2.88,15.89-3.55,4-9.18,6.32-15.44,6.32H135.36a11.39,11.39,0,0,0-11.48,10.44q0,.38,0,.75a11.18,11.18,0,0,0,.76,4,9.15,9.15,0,0,0,.38.85A11.12,11.12,0,0,0,135,142.62H183.1a43.64,43.64,0,0,0,23.9-7.39,40.86,40.86,0,0,1,22.49-6.71h2.26V77.77Zm11.28,46.78a44.94,44.94,0,0,0-22.95,7.34,39.7,39.7,0,0,1-21.7,6.73H135a7,7,0,0,1-3.4-.86h0a7.12,7.12,0,0,1-3.29-3.72,7.36,7.36,0,0,1-.28-.91,6.87,6.87,0,0,1-.19-2.17,7.38,7.38,0,0,1,7.49-6.7h29.46c7.41,0,14.13-2.8,18.44-7.68,4.91-5.58,6.37-13.88,3.53-20.17a18.26,18.26,0,0,0-17.62-10.48c-8.67.58-14.6,5.37-19.94,10.23l-.41.37c-.22-.19-.44-.38-.66-.55a19.47,19.47,0,0,0-1.82-1.36c-.31-.21-.63-.42-1-.62l-.26-.15a24.08,24.08,0,0,0-10.93-3.24q-.59,0-1.17,0h-.36c1.61-1.59,3.45-3.38,5.84-5.68,4-3.87,10.13-9.4,17.06-12.79a28.87,28.87,0,0,1,12.59-3.17c8.63,0,17.19,3.57,22.85,6.56a54.74,54.74,0,0,0,25.47,6.27h11.28Z"/><circle class="cls-1" cx="139.53" cy="114.19" r="4.88"/><path class="cls-1" d="M151.57,99.44A23.25,23.25,0,0,0,148.16,96a22.07,22.07,0,0,0-1.82-1.36c-.31-.21-.63-.42-1-.62l-.26-.15a23.37,23.37,0,0,0-10.93-3.24q-.59,0-1.17,0a23.64,23.64,0,0,0-20.79,12.68H79l-14.63,8.83v8l14.48,9L86,122.5h3l7,6.86,4.62-4.47,2.24,2h10.47A23.71,23.71,0,0,0,125,136.34a23.3,23.3,0,0,0,6.64,1.42,7.12,7.12,0,0,1-3.29-3.72,7.36,7.36,0,0,1-.28-.91,19.67,19.67,0,0,1-11.92-9.19l-.58-1h-11.2l-3.88-3.52L96,123.78l-5.38-5.28H84.42l-6,5.57-10-6.2v-2.65h44.79v-4H73.59l6.56-4h34.61l.54-1.17a19.7,19.7,0,0,1,12.49-10.76c.37-.11.75-.21,1.14-.29a19.69,19.69,0,0,1,7.23-.23,19.61,19.61,0,0,1,9.46,4.25l.71.62c.23.21.46.43.68.65a19.59,19.59,0,0,1,3,23.93h4.52a22.77,22.77,0,0,0,1.47-4,23.6,23.6,0,0,0-4.4-20.82Z"/></g></g></svg>