<svg xmlns="http://www.w3.org/2000/svg" viewBox="0 0 256 256"><defs><style>.cls-1{fill:#1d384d;}</style></defs><title>management</title><g id="icons_without_caption" data-name="icons without caption"><g id="MANAGEMENT"><path class="cls-1" d="M146.83,141.23c0,8.27-5.82,14.09-15.67,14.88v9.81h-5.42V156a28.25,28.25,0,0,1-16.58-8L113.4,143A23,23,0,0,0,129,149.74c6,0,10.4-3,10.4-8.07,0-5.82-4.67-7.75-12.14-10.09-8.86-2.85-16.93-5.62-16.93-15.27,0-7.87,5.5-13.85,15.39-14.32V91.73h5.42v10.6a33.15,33.15,0,0,1,13.81,5.9l-4.07,5a25.16,25.16,0,0,0-13.65-4.79c-5.66,0-9.61,2.65-9.61,7.4,0,5.06,4.91,6.92,11.67,9.14,10,3.17,17.53,5.82,17.53,16.22Z"/><circle class="cls-1" cx="128" cy="128" r="6.61"/><rect class="cls-1" x="142.27" y="122.09" width="4" height="46.01" transform="translate(-60.34 144.51) rotate(-45)"/><rect class="cls-1" x="89.81" y="126" width="38.19" height="4"/><rect class="cls-1" x="126" y="69.83" width="4" height="6.79"/><rect class="cls-1" x="126" y="180.18" width="4" height="6.79"/><rect class="cls-1" x="179.78" y="126.4" width="6.79" height="4"/><rect class="cls-1" x="69.43" y="126.4" width="6.79" height="4"/><path class="cls-1" d="M128,210.26A82.26,82.26,0,1,1,210.26,128,82.35,82.35,0,0,1,128,210.26Zm0-160.51A78.26,78.26,0,1,0,206.26,128,78.35,78.35,0,0,0,128,49.74Z"/><path class="cls-1" d="M128,193.81A65.81,65.81,0,1,1,193.81,128,65.88,65.88,0,0,1,128,193.81Zm0-128.41A62.61,62.61,0,1,0,190.61,128,62.68,62.68,0,0,0,128,65.39Z"/></g></g></svg>