<svg xmlns="http://www.w3.org/2000/svg" viewBox="0 0 256 256"><defs><style>.cls-1{fill:#1d384d;}</style></defs><title>p2p lending</title><g id="icons_without_caption" data-name="icons without caption"><g id="P2P_LENDING" data-name="P2P LENDING"><path class="cls-1" d="M128.81,78.17a16.43,16.43,0,1,1,16.43-16.43A16.45,16.45,0,0,1,128.81,78.17Zm0-28.86a12.43,12.43,0,1,0,12.43,12.43A12.45,12.45,0,0,0,128.81,49.3Z"/><path class="cls-1" d="M158.84,87.73l0,0-1.61-1.61-.07-.07-.2-.2h0a2.5,2.5,0,0,0-.51-.38,20.34,20.34,0,0,0-12.79-4.56h-26c-1.12,0-2.23,0-3.39,0a20,20,0,0,0-19.1,20.44v26.24h68.6V101A20.26,20.26,0,0,0,158.84,87.73Zm1,35.86H149.3V107.8h-4v15.79H113.69V107.8h-4v15.79H99.19V101.35A16,16,0,0,1,114.5,84.91c1,0,2.09,0,3.14,0h2l6,7h5.71l6.47-7h5.8a16.25,16.25,0,0,1,11.38,4.66l.08.08A16.2,16.2,0,0,1,159.79,101Zm-27.34-38.7-2.8,3h-2.11l-2.59-3Z"/><path class="cls-1" d="M128.57,121.94l-7-5.65,3.26-28.36h7.48l3.26,28.36Zm-2.77-7.38,2.77,2.24,2.77-2.24-2.6-22.63h-.34Z"/><path class="cls-1" d="M69,161.27a16.43,16.43,0,1,1,16.43-16.43A16.45,16.45,0,0,1,69,161.27Zm0-28.86a12.43,12.43,0,1,0,12.43,12.43A12.45,12.45,0,0,0,69,132.41Z"/><path class="cls-1" d="M99.44,171.34a4.46,4.46,0,0,0-.42-.52l0,0-1.33-1.33-.34-.34-.8-.8h-.19A20.33,20.33,0,0,0,83.86,164h-26c-1.12,0-2.23,0-3.39,0a20,20,0,0,0-19.1,20.44V210.7H104V184.07A20.27,20.27,0,0,0,99.44,171.34ZM100,206.7H89.48V190.91h-4V206.7H53.87V190.91h-4V206.7H39.37V184.46A16,16,0,0,1,54.68,168c1,0,2.09,0,3.14,0h2l6,7h5.71l6.47-7h5.8A16,16,0,0,1,100,184.07ZM72.63,168l-2.79,3H67.72l-2.59-3Z"/><path class="cls-1" d="M68.75,205l-7-5.65L65,171h7.48l3.26,28.36ZM66,197.67l2.77,2.24,2.77-2.24L68.93,175h-.34Z"/><path class="cls-1" d="M185.65,161.27a16.43,16.43,0,1,1,16.43-16.43A16.45,16.45,0,0,1,185.65,161.27Zm0-28.86a12.43,12.43,0,1,0,12.43,12.43A12.45,12.45,0,0,0,185.65,132.41Z"/><path class="cls-1" d="M216.11,171.34a4.45,4.45,0,0,0-.42-.52l0,0-1.33-1.33-.34-.34-.8-.8h-.19A20.33,20.33,0,0,0,200.53,164h-26c-1.12,0-2.23,0-3.39,0A20,20,0,0,0,152,184.46V210.7h68.6V184.07A20.27,20.27,0,0,0,216.11,171.34Zm.53,35.36H206.14V190.91h-4V206.7H170.53V190.91h-4V206.7H156V184.46A16,16,0,0,1,171.35,168c1,0,2.09,0,3.14,0h2l6,7h5.71l6.47-7h5.8a16,16,0,0,1,16.11,16.08ZM189.29,168l-2.79,3h-2.11l-2.59-3Z"/><path class="cls-1" d="M185.42,205l-7-5.65L181.68,171h7.48l3.26,28.36Zm-2.77-7.38,2.77,2.24,2.77-2.24L185.59,175h-.34Z"/><polygon class="cls-1" points="142.67 157.36 142.67 163.52 130.57 152.82 130.57 139.27 134.56 143.26 137.39 140.43 128.49 131.52 119.76 140.25 122.59 143.07 126.58 139.09 126.58 152.82 114.48 163.52 114.48 157.36 110.48 157.36 110.48 169.96 122.82 169.96 122.82 165.96 117.76 165.96 128.57 156.39 139.39 165.96 134.33 165.96 134.33 169.96 146.67 169.96 146.67 157.36 142.67 157.36"/></g></g></svg>