<svg xmlns="http://www.w3.org/2000/svg" viewBox="0 0 256 256"><defs><style>.cls-1{fill:#1d384d;}</style></defs><title>piggy bank</title><g id="icons_without_caption" data-name="icons without caption"><g id="PIGGY_BANK" data-name="PIGGY BANK"><path class="cls-1" d="M137,75.18v0a5.1,5.1,0,0,1-1.7,4H124.85A10.39,10.39,0,0,1,123,77.77l1.57-1.88a8.55,8.55,0,0,0,5.79,2.49c2.22,0,3.86-1.1,3.86-3a1.48,1.48,0,0,0,0-.21Z"/><path class="cls-1" d="M218.43,129.72H207.3v-4h11.13a5.71,5.71,0,0,0,5.71-5.71,4.53,4.53,0,0,0-9.06,0h-4a8.53,8.53,0,0,1,17.06,0A9.72,9.72,0,0,1,218.43,129.72Z"/><path class="cls-1" d="M130,47.61a23,23,0,0,0-22.56,27.57,23.9,23.9,0,0,0,1.19,4,23.07,23.07,0,0,0,3.84,6.36,22.69,22.69,0,0,0,3.84,3.61l.53.39h26.32l.53-.39a22.45,22.45,0,0,0,3.86-3.61,23.29,23.29,0,0,0,3.83-6.36A23,23,0,0,0,130,47.61Zm17,31.57a18.87,18.87,0,0,1-5.16,6.36H118.2A18.66,18.66,0,0,1,113,79.18a18.41,18.41,0,0,1-1.47-4,19,19,0,1,1,37.51-4.54,18.57,18.57,0,0,1-.56,4.54A18.14,18.14,0,0,1,147,79.18Z"/><path class="cls-1" d="M130.51,69.22c-2.51-.82-4.33-1.51-4.33-3.39s1.47-2.74,3.57-2.74a9.25,9.25,0,0,1,5.05,1.78L136.31,63a12.25,12.25,0,0,0-5.11-2.18V56.89h-2v3.8c-3.67.17-5.71,2.39-5.71,5.3,0,3.58,3,4.61,6.28,5.66,2.68.84,4.38,1.54,4.49,3.53a1.48,1.48,0,0,1,0,.21c0,1.89-1.64,3-3.86,3a8.55,8.55,0,0,1-5.79-2.49L123,77.77a10.39,10.39,0,0,0,1.81,1.41,10.13,10.13,0,0,0,4.34,1.54v3.66h2V80.75a6.87,6.87,0,0,0,4.1-1.57,5.1,5.1,0,0,0,1.7-4v0C137,71.37,134.18,70.38,130.51,69.22Z"/><rect class="cls-1" x="107.96" y="85.54" width="42.39" height="4"/><path class="cls-1" d="M156.78,75.18h-8.29a18.14,18.14,0,0,1-1.49,4h9.78A43.91,43.91,0,0,1,200.64,123v12.55a44,44,0,0,1-29.7,41.52V162.73h-4v41.66H147.16V172.56h-4v6.87H109.28v-6.87h-4v31.83H85.5V162.73h-4v14.18a44.17,44.17,0,0,1-26.39-26,46.57,46.57,0,0,1-2.55-11.1l-.2-1.78H31.86V113.69h29.3v-4H54.41a42.79,42.79,0,0,1,3.52-8.1l.25-.46V79a4.21,4.21,0,0,1,7.18-3L82.08,92.76l2.83-2.83-6.84-6.84A44,44,0,0,1,96.2,79.18H113a18.41,18.41,0,0,1-1.47-4H96.2a48.08,48.08,0,0,0-21.14,4.9l-6.87-6.87a8.2,8.2,0,0,0-14,5.8v21.08a47.86,47.86,0,0,0-4,9.6H27.86v32.38h21a49.22,49.22,0,0,0,2.56,10.34A48.09,48.09,0,0,0,81.5,181.13v27.26h27.78v-25h33.88v25h27.78V181.3a48,48,0,0,0,33.7-45.72V123A47.91,47.91,0,0,0,156.78,75.18Z"/><rect class="cls-1" x="79.41" y="115.97" width="8.18" height="4"/></g></g></svg>