<svg xmlns="http://www.w3.org/2000/svg" viewBox="0 0 256 256"><defs><style>.cls-1{fill:#1d384d;}</style></defs><title>planning</title><g id="icons_without_caption" data-name="icons without caption"><g id="PLANNING"><path class="cls-1" d="M185.62,217.15H128.26V181H83.74V147.95H62.59l21.15-40.85A46.77,46.77,0,0,1,98.6,73a52,52,0,0,1,35.7-13.59h.76a50.62,50.62,0,0,1,50.56,50.56Zm-53.36-4h49.36V109.93a46.61,46.61,0,0,0-46.56-46.56h-.76c-26.54,0-46.56,19-46.56,44.21v.49L69.17,143.95H87.74V177h44.51Z"/><path class="cls-1" d="M201.64,66.88a24.34,24.34,0,0,0-24.54-17l8.54-8.12-2.76-2.9L168.72,52.32l13.2,13.88,2.9-2.76-9-9.44a20.34,20.34,0,0,1,20.6,29.6L200,85.46A24.2,24.2,0,0,0,201.64,66.88Z"/><path class="cls-1" d="M74.08,184.92l-2.9,2.76,9,9.44a20.34,20.34,0,0,1-20.6-29.6L56,165.66A24.35,24.35,0,0,0,77.6,201.29c.43,0,.87,0,1.3,0l-8.53,8.12,2.76,2.9L87.28,198.8Z"/><path class="cls-1" d="M146.82,132.26l-22.12-15.2h-3.17a19.68,19.68,0,0,1,0-39.35h25.52a19.68,19.68,0,0,1,0,39.35h-3ZM121.53,81.7a15.68,15.68,0,0,0,0,31.35h4.41l15.21,10.45-1.91-10.45h7.82a15.68,15.68,0,0,0,0-31.35Z"/><circle class="cls-1" cx="122.18" cy="96.69" r="2.93"/><circle class="cls-1" cx="134.3" cy="96.69" r="2.93"/><circle class="cls-1" cx="146.41" cy="96.69" r="2.93"/></g></g></svg>