<svg xmlns="http://www.w3.org/2000/svg" viewBox="0 0 256 256"><defs><style>.cls-1{fill:#1d384d;}</style></defs><title>profit</title><g id="icons_without_caption" data-name="icons without caption"><g id="PROFIT"><path class="cls-1" d="M172.58,180.29a12,12,0,0,0-8.92-4h-22.6a12.32,12.32,0,0,0,.83-1.05A11.94,11.94,0,0,0,139,158.61l-36.2-25.71a50.35,50.35,0,0,0-29.3-9.34H40.59V173.2H57.35c7.44,0,9.64,1.68,14.45,5.34,1.28,1,2.73,2.07,4.48,3.3l10,7,.17.1c6.06,3.39,21.22,11.28,31.08,11.28h46.17a12,12,0,0,0,8.91-4l0,0a11.95,11.95,0,0,0,0-15.87Zm-8.92,15.89H117.49c-9.11,0-24.42-8.14-29-10.72l-9.88-6.9c-1.68-1.18-3.1-2.26-4.35-3.21-5-3.83-8.08-6.15-16.87-6.15H44.59V127.55H73.54a46.35,46.35,0,0,1,27,8.6l36.21,25.71a7.94,7.94,0,1,1-9.18,13L103.74,158l-2.31,3.27,23.81,16.85a11.75,11.75,0,0,0,7.15,2.2h31.27a7.94,7.94,0,0,1,0,15.89Z"/><path class="cls-1" d="M176.12,200.16l-.61,0H163.66a11.89,11.89,0,0,0,3.23-.45v.43Z"/><path class="cls-1" d="M187.45,188.23a11.94,11.94,0,0,1-11.33,11.93h-9.23v-.43a11.92,11.92,0,0,0,5.68-3.55h2.94l.54,0a7.94,7.94,0,0,0-.54-15.87h-2.93a12,12,0,0,0-8.92-4h11.85a11.94,11.94,0,0,1,11.94,11.94Z"/><path class="cls-1" d="M172.59,196.16h3.46l-.54,0h-2.94Z"/><path class="cls-1" d="M197.09,188.22a11.94,11.94,0,0,1-11.93,11.94h-9a11.88,11.88,0,0,0,8.32-4h.72a7.94,7.94,0,0,0,0-15.87h-.73a12,12,0,0,0-8.92-4h9.65A11.94,11.94,0,0,1,197.09,188.22Z"/><rect class="cls-1" x="139.34" y="140.93" width="75.94" height="4"/><path class="cls-1" d="M121,105.14c0,4.7-3.31,8-8.91,8.46v5.58H109v-5.63A16.07,16.07,0,0,1,99.56,109l2.41-2.88a13.1,13.1,0,0,0,8.89,3.83c3.4,0,5.92-1.69,5.92-4.59,0-3.31-2.65-4.41-6.91-5.74-5-1.62-9.63-3.2-9.63-8.69,0-4.48,3.13-7.88,8.76-8.15V77h3.08v6a18.86,18.86,0,0,1,7.86,3.35l-2.32,2.86a14.32,14.32,0,0,0-7.77-2.72c-3.22,0-5.47,1.51-5.47,4.21,0,2.88,2.79,3.94,6.64,5.2,5.67,1.8,10,3.31,10,9.23Z"/><rect class="cls-1" x="108.26" y="55.82" width="4" height="11.47"/><rect class="cls-1" x="75.3" y="96.09" width="11.47" height="4"/><rect class="cls-1" x="132.76" y="96.09" width="11.47" height="4"/><rect class="cls-1" x="127.36" y="72.06" width="11.47" height="4" transform="translate(-16.49 102.74) rotate(-39.95)"/><rect class="cls-1" x="85.43" y="68.32" width="4" height="11.47" transform="translate(-25.48 93.53) rotate(-50.05)"/><path class="cls-1" d="M215.41,135.35H193V80.81h22.36Zm-18.36-4h14.36V84.81H197Z"/><path class="cls-1" d="M188.57,135.36H166.21V103h22.36Zm-18.36-4h14.36V107H170.21Z"/><path class="cls-1" d="M161.74,135.36H139.38V117.19h22.36Zm-18.36-4h14.36V121.19H143.38Z"/></g></g></svg>