<svg xmlns="http://www.w3.org/2000/svg" viewBox="0 0 256 256"><defs><style>.cls-1{fill:#1d384d;}</style></defs><title>retirement savings</title><g id="icons_without_caption" data-name="icons without caption"><g id="RETIREMENT_SAVINGS" data-name="RETIREMENT SAVINGS"><path class="cls-1" d="M130.39,43.14a25.76,25.76,0,1,0,25.76,25.75A25.78,25.78,0,0,0,130.39,43.14Zm0,47.51a21.76,21.76,0,1,1,21.76-21.76A21.78,21.78,0,0,1,130.39,90.65Z"/><path class="cls-1" d="M200.38,173.67h-.13l-19.12,0h-2.76v11.41h21.82a.64.64,0,0,1,.64.64v27.1l11.5-.06V185.76A12.1,12.1,0,0,0,200.38,173.67Zm8,35.16-3.5,0V185.77a4.65,4.65,0,0,0-4.64-4.64H182.37v-3.42l17.88,0a8.09,8.09,0,0,1,8.08,8.09Z"/><path class="cls-1" d="M90.28,212.86a13.93,13.93,0,0,1-13.92-13.92V146.71h4v52.22a9.92,9.92,0,1,0,19.84,0V146.71h4v52.22A13.93,13.93,0,0,1,90.28,212.86Z"/><path class="cls-1" d="M76.32,133.39v62.45h4V133.39a26.39,26.39,0,0,1,.21-3.34,26.42,26.42,0,0,1-4.1.72C76.36,131.63,76.32,132.51,76.32,133.39Z"/><path class="cls-1" d="M203.24,156.87l-19.37-37.15a33.37,33.37,0,0,0-29.68-18H108a31.9,31.9,0,0,0-3.93.24,32.39,32.39,0,0,0-4,.75c.06.63.08,1.27.08,1.92s0,1.51-.1,2.25a26,26,0,0,1,4.06-.89,27.12,27.12,0,0,1,3.84-.27h5.37a17.15,17.15,0,0,0,34.06,0h6.77a29.35,29.35,0,0,1,26.13,15.85l19.37,37.15a10.1,10.1,0,0,1-17.83,9.48l-14.37-25.71a4.62,4.62,0,0,0-8.66,2.25v64.12H104.19V144.74h-4v68.12h62.64V144.74a.62.62,0,0,1,1.17-.3l14.36,25.69a14.07,14.07,0,0,0,18.82,5.8,14.22,14.22,0,0,0,3.2-2.26,14.11,14.11,0,0,0,2.86-16.8Zm-72.85-40a13.16,13.16,0,0,1-13-11.15h26A13.17,13.17,0,0,1,130.39,116.87Z"/><circle class="cls-1" cx="130.39" cy="137.05" r="3.22"/><circle class="cls-1" cx="130.39" cy="158.42" r="3.22"/><circle class="cls-1" cx="130.39" cy="179.79" r="3.22"/><path class="cls-1" d="M104.06,102a30.25,30.25,0,1,0-30.13,32.93,23.62,23.62,0,0,0,2.39-.11,26.4,26.4,0,0,0,4-.58A30.28,30.28,0,0,0,104.15,106c0-.45,0-.9,0-1.36A26.23,26.23,0,0,0,104.06,102ZM80.53,130a26.42,26.42,0,0,1-4.1.72c-.82.08-1.66.12-2.5.12a26.26,26.26,0,1,1,26.18-28.18c.06.63.08,1.27.08,1.92s0,1.51-.1,2.25A26.31,26.31,0,0,1,80.53,130Z"/><path class="cls-1" d="M74.58,102.75c-3.33-1.09-5.74-2-5.74-4.49,0-2.33,1.94-3.63,4.72-3.63A12.32,12.32,0,0,1,80.27,97l2-2.47a16.31,16.31,0,0,0-6.78-2.9V86.4H72.83v5c-4.86.23-7.57,3.17-7.57,7,0,4.75,4,6.11,8.32,7.51,3.68,1.15,6,2.1,6,5,0,2.5-2.18,4-5.11,4a11.34,11.34,0,0,1-7.68-3.3l-2.08,2.49a13.89,13.89,0,0,0,8.15,3.9v4.86h2.66V118c4.84-.39,7.7-3.24,7.7-7.31C83.19,105.61,79.47,104.31,74.58,102.75Z"/></g></g></svg>