<svg xmlns="http://www.w3.org/2000/svg" viewBox="0 0 256 256"><defs><style>.cls-1{fill:#1d384d;}</style></defs><title>revenue</title><g id="icons_without_caption" data-name="icons without caption"><g id="REVENUE"><path class="cls-1" d="M186.59,163.86l-55.34-37.77v-67h2a65.94,65.94,0,0,1,54.46,103.12ZM135.26,124l50.26,34.31a61.95,61.95,0,0,0-50.26-95.17Z"/><path class="cls-1" d="M122.74,196.91a65.95,65.95,0,0,1,0-131.89h2V129.9l53.59,36.58-1.13,1.65A66,66,0,0,1,122.74,196.91Zm-2-127.86a61.95,61.95,0,1,0,52,98.46l-52-35.5Z"/><rect class="cls-1" x="145.46" y="103.61" width="32.69" height="4" transform="translate(-20.4 169.91) rotate(-52.57)"/><path class="cls-1" d="M169,120.59a6.16,6.16,0,1,1,6.16-6.16A6.17,6.17,0,0,1,169,120.59Zm0-8.32a2.16,2.16,0,1,0,2.16,2.16A2.16,2.16,0,0,0,169,112.28Z"/><path class="cls-1" d="M155.08,102.31a6.16,6.16,0,1,1,6.16-6.16A6.17,6.17,0,0,1,155.08,102.31Zm0-8.32a2.16,2.16,0,1,0,2.16,2.16A2.16,2.16,0,0,0,155.08,94Z"/></g></g></svg>