<svg xmlns="http://www.w3.org/2000/svg" viewBox="0 0 256 256"><defs><style>.cls-1{fill:#1d384d;}</style></defs><title>saas</title><g id="icons_without_caption" data-name="icons without caption"><g id="SAAS"><path class="cls-1" d="M215.47,134.62A30.51,30.51,0,0,1,185,165.08H157v-4h28a26.47,26.47,0,0,0,.07-52.95h-2.12l0-2.39c0-.13,0-.25,0-.37a49.53,49.53,0,0,0-94.83-20l-.59,1.34-1.46-.17a40.32,40.32,0,0,0-4.18-.23A37.4,37.4,0,0,0,79.19,161l1.54.11h21.59v4L77,164.8h0a41.4,41.4,0,0,1,4.89-82.52c1,0,2.1,0,3.18.12A53.53,53.53,0,0,1,187,104.19,30.53,30.53,0,0,1,215.47,134.62Z"/><polygon class="cls-1" points="172.54 177.35 143.79 204.16 118.84 180.91 134.6 180.91 134.6 181.35 125.19 181.35 143.79 198.69 162.38 181.35 152.97 181.35 152.97 141.24 134.6 141.24 134.6 137.24 156.97 137.24 156.97 177.35 172.54 177.35"/><path class="cls-1" d="M118.47,91.33,83.45,124h18.87V180.9H134.6V124h18.88ZM130.6,120V176.9H106.32V120H93.61L118.47,96.8,143.32,120Z"/></g></g></svg>