<svg xmlns="http://www.w3.org/2000/svg" viewBox="0 0 256 256"><defs><style>.cls-1{fill:#1d384d;}</style></defs><title>savings</title><g id="icons_without_caption" data-name="icons without caption"><g id="SAVINGS"><path class="cls-1" d="M128.55,96a26.78,26.78,0,0,0-9.8-4H108.39a26.78,26.78,0,0,0-9.8,4,27.27,27.27,0,0,0,5.67,48.44,26.84,26.84,0,0,0,5.6,1.39,16.11,16.11,0,0,1,6.48-1.35h6.43a26.94,26.94,0,0,0,7.34-4A27.25,27.25,0,0,0,128.55,96Zm-6.5,44.48a23.21,23.21,0,0,1-8.48,1.6,23,23,0,0,1-4.18-.38,23.29,23.29,0,1,1,12.66-1.22Z"/><path class="cls-1" d="M114.11,117.24c-2.82-.92-4.86-1.7-4.86-3.81s1.65-3.08,4-3.08a10.51,10.51,0,0,1,5.69,2l1.7-2.09a13.79,13.79,0,0,0-5.75-2.46v-4.42h-2.26v4.27c-4.13.2-6.42,2.69-6.42,6,0,4,3.37,5.18,7.06,6.37,3.12,1,5.06,1.78,5.06,4.21,0,2.12-1.84,3.36-4.33,3.36a9.63,9.63,0,0,1-6.52-2.8l-1.76,2.11a11.74,11.74,0,0,0,6.91,3.31v4.13h2.26v-4.09c4.1-.33,6.53-2.76,6.53-6.21C121.42,119.67,118.27,118.56,114.11,117.24Z"/><polygon class="cls-1" points="60.42 140.11 57.59 137.28 68.09 126.78 57.33 116.02 60.15 113.19 73.75 126.78 60.42 140.11"/><path class="cls-1" d="M197.54,92a41,41,0,0,1-24.79-8.39h0a48.68,48.68,0,0,0-31.4-11.5H84.81a11.95,11.95,0,1,0,0,23.89h50.12a22.24,22.24,0,0,1,0,44.48H116.34a20.4,20.4,0,0,0-12.08,4c-.49.37-1,.76-1.43,1.17A20.37,20.37,0,0,0,96,160.89v2h58.41a44.9,44.9,0,0,0,24.7-7.38,40.93,40.93,0,0,1,22.51-6.72h25.14V92ZM76.86,84.09a8,8,0,0,1,7.95-7.95h2.93a11.93,11.93,0,0,0,0,15.89H84.81A8,8,0,0,1,76.86,84.09Zm145.87,60.69H201.59a44.9,44.9,0,0,0-24.7,7.38,41,41,0,0,1-22.51,6.72H100.1a16.36,16.36,0,0,1,5.38-10.25,16.55,16.55,0,0,1,10.86-4.12h18.59a26.24,26.24,0,0,0,0-52.48H96.66a7.94,7.94,0,0,1,0-15.89h44.71c.6,0,1.2,0,1.8,0l.53,0,1.07.07,1,.08.92.1c.77.09,1.55.2,2.32.34l.9.17,1.21.25.28.06,1.13.28.94.25.62.18,1,.29q1.65.53,3.26,1.19l.39.16c.54.23,1.09.47,1.62.72h0c.84.4,1.66.82,2.48,1.27l.24.13c.81.45,1.61.92,2.4,1.42l.46.31.91.61.66.48c.28.19.55.39.82.6l.54.41c.45.35.9.71,1.35,1.09h0l.07.06A45,45,0,0,0,197.54,96h25.19Z"/><path class="cls-1" d="M182.6,183.85H58.87a29.6,29.6,0,0,1,0-59.2H69.72v4H58.87a25.6,25.6,0,0,0,0,51.2H182.6Z"/></g></g></svg>