<svg xmlns="http://www.w3.org/2000/svg" viewBox="0 0 256 256"><defs><style>.cls-1{fill:#1d384d;}</style></defs><title>strategy</title><g id="icons_without_caption" data-name="icons without caption"><g id="STRATEGY"><path class="cls-1" d="M207,72.16H49V60H207ZM53,68.16H203V64H53Z"/><path class="cls-1" d="M207,153.23H49V141H207Zm-154.1-4H203V145H53Z"/><path class="cls-1" d="M194.48,145h-133V68.16h133Zm-129-4h125V72.16h-125Z"/><path class="cls-1" d="M141.46,196H114.54v-46.8h26.92Zm-22.92-4h18.92v-38.8H118.54Z"/><rect class="cls-1" x="80.57" y="192.02" width="94.86" height="4"/><path class="cls-1" d="M84.16,129.94a9.33,9.33,0,1,1,9.33-9.33A9.34,9.34,0,0,1,84.16,129.94Zm0-14.66a5.33,5.33,0,1,0,5.33,5.33A5.34,5.34,0,0,0,84.16,115.28Z"/><polygon class="cls-1" points="136.3 83.75 133.47 80.92 128 86.39 122.53 80.92 119.7 83.75 125.17 89.22 119.7 94.7 122.53 97.52 128 92.05 133.47 97.52 136.3 94.7 130.83 89.22 136.3 83.75"/><path class="cls-1" d="M103.2,80.92l-2.83,2.83,3.47,3.47H93.36a11.22,11.22,0,0,0-11.2,11.2V105h4V98.43a7.21,7.21,0,0,1,7.2-7.2H105l-4.52,4.52,2.83,2.83,8.79-8.79Z"/><path class="cls-1" d="M165.92,87.22H146v4h19.92a7.21,7.21,0,0,1,7.2,7.2v15.13a8.08,8.08,0,0,1-8.07,8.07H149.3l4-4-2.83-2.83-8.79,8.79,8.87,8.87,2.83-2.83-4-4h15.67a12.08,12.08,0,0,0,12.07-12.07V98.43A11.22,11.22,0,0,0,165.92,87.22Z"/><path class="cls-1" d="M135.93,125.82c0,3.47-2.44,5.92-6.58,6.25v4.12h-2.28V132a11.87,11.87,0,0,1-7-3.34l1.78-2.13a9.67,9.67,0,0,0,6.57,2.83c2.51,0,4.37-1.25,4.37-3.39,0-2.44-2-3.26-5.1-4.24-3.72-1.2-7.11-2.36-7.11-6.42,0-3.31,2.31-5.82,6.47-6V105h2.28v4.46a13.92,13.92,0,0,1,5.8,2.48l-1.71,2.11a10.57,10.57,0,0,0-5.74-2c-2.38,0-4,1.11-4,3.11s2.06,2.91,4.9,3.84c4.19,1.33,7.36,2.44,7.36,6.81Z"/></g></g></svg>