<svg xmlns="http://www.w3.org/2000/svg" viewBox="0 0 256 256"><defs><style>.cls-1{fill:#1d384d;}</style></defs><title>success</title><g id="icons_without_caption" data-name="icons without caption"><g id="SUCCESS"><path class="cls-1" d="M173,217.65H83.93V175H173Zm-85.1-4H169V179H87.93Z"/><path class="cls-1" d="M161.34,203.57H95.7V186.16h65.64Zm-61.64-4h57.64v-9.41H99.7Z"/><path class="cls-1" d="M171,179H85.93v-4a40.6,40.6,0,0,0,40.55-40.55V134h4v.48A40.6,40.6,0,0,0,171,175Zm-66.66-4h48.21a44.77,44.77,0,0,1-24.11-27.34A44.77,44.77,0,0,1,104.37,175Z"/><path class="cls-1" d="M128.67,136h-.38a54.15,54.15,0,0,1-23.25-5.7c-9.63-5-21.11-15.58-21.11-37.75V60.72l22.67-6a86.39,86.39,0,0,1,43.76,0l22.67,6v31.8c0,22.17-11.48,32.77-21.11,37.75A54.15,54.15,0,0,1,128.67,136Zm-.23-4h.23c4.13,0,40.36-1.11,40.36-39.45V63.8l-19.69-5.18a82.34,82.34,0,0,0-41.72,0L87.93,63.8V92.52c0,38.35,36.23,39.45,40.36,39.45Z"/><path class="cls-1" d="M153.54,59.73l-4.2-1.1a82.33,82.33,0,0,0-41.72,0l-4.2,1.1V42.06l1.45-.41a86.34,86.34,0,0,1,47.23,0l1.45.41Zm-25.06-7.8a86,86,0,0,1,21.06,2.62V45.09a82.31,82.31,0,0,0-42.13,0v9.46A86,86,0,0,1,128.48,51.92Z"/><path class="cls-1" d="M168.07,113.49h-.68v-4h.68c14.06,0,25.54-10.74,26.14-24.45,0-.41,0-.82,0-1.24V73.75H171v-4h27.21V83.8c0,.47,0,.95,0,1.41C197.52,101.07,184.28,113.49,168.07,113.49Z"/><path class="cls-1" d="M89.85,114.16h-2a29.71,29.71,0,0,1-27.49-17.7,31.85,31.85,0,0,1-2.6-12.66V69.75H85.93v4H61.76V83.8A27.88,27.88,0,0,0,64,94.88a25.72,25.72,0,0,0,23.81,15.28h2Z"/></g></g></svg>