<svg xmlns="http://www.w3.org/2000/svg" viewBox="0 0 256 256"><defs><style>.cls-1{fill:#1d384d;}</style></defs><title>taxes</title><g id="icons_without_caption" data-name="icons without caption"><g id="TAXES"><path class="cls-1" d="M174.79,46.15H65.7c-.29,0-.59,0-.88,0l-.48,0a13.2,13.2,0,0,0-4.49,1.3l-.4.21c-.19.1-.37.21-.55.32s-.36.22-.53.34a9.85,9.85,0,0,0-1,.72l0,0a10.21,10.21,0,0,0-.77.69l0,0-.13.11a8.6,8.6,0,0,0-.58.64,6.5,6.5,0,0,0-.42.5,1,1,0,0,0-.08.11,11.14,11.14,0,0,0-.7,1l-.1.16c-.24.39-.46.78-.66,1.19-.1.19-.18.39-.26.58-.16.39-.31.79-.44,1.2l-.15.5c-.06.25-.12.5-.17.75s-.08.42-.12.63-.06.44-.08.67,0,.35,0,.53,0,.54,0,.82V128.7H31.91v28.87a12.35,12.35,0,0,0,12.34,12.34H74.78v20.61H165.7a27.43,27.43,0,0,1-1.76-4H78.78V59.24a13,13,0,0,0-3.69-9.09h99.7a9.52,9.52,0,0,1,9.51,9.51v89.25a27.88,27.88,0,0,1,4-.7V59.66A13.52,13.52,0,0,0,174.79,46.15ZM35.91,157.57V132.7H52.59v24.87a8.34,8.34,0,1,1-16.68,0Zm38.87,8.34H53.34a11.83,11.83,0,0,0,.79-1c.12-.16.24-.32.35-.49s.21-.33.32-.5a12,12,0,0,0,1.46-3.59,3.64,3.64,0,0,0,.1-.45c0-.19.07-.38.1-.57s.05-.39.07-.59a1.49,1.49,0,0,0,0-.21c0-.32,0-.65,0-1V59.25c0-.2,0-.39,0-.58l0-.36a6.93,6.93,0,0,1,.15-.93,3,3,0,0,1,.09-.41,7.21,7.21,0,0,1,.3-.93,5.71,5.71,0,0,1,.28-.68,7.17,7.17,0,0,1,.69-1.2c.16-.23.33-.46.5-.68l0,0a4.61,4.61,0,0,1,.36-.41l.29-.3a.17.17,0,0,1,.06-.06.5.5,0,0,1,.11-.1l.33-.29a3.38,3.38,0,0,1,.43-.34c.23-.17.47-.33.71-.49a9.85,9.85,0,0,1,1.3-.65l.37-.14a9.46,9.46,0,0,1,2.12-.48l.33,0,.65,0,.53,0,.5,0,.3,0q.32,0,.63.12l.58.16a3.82,3.82,0,0,1,.57.19l.48.2a9.46,9.46,0,0,1,5,5.78,9.79,9.79,0,0,1,.43,2.88Z"/><rect class="cls-1" x="99.29" y="67.55" width="65.54" height="4"/><rect class="cls-1" x="99.29" y="87.22" width="65.54" height="4"/><rect class="cls-1" x="99.29" y="106.89" width="65.54" height="4"/><rect class="cls-1" x="99.29" y="126.56" width="65.54" height="4"/><rect class="cls-1" x="99.29" y="146.24" width="44.66" height="4"/><rect class="cls-1" x="99.29" y="165.91" width="33.31" height="4"/><path class="cls-1" d="M217.43,157.14a32.64,32.64,0,0,0-21.7-12.75,32,32,0,0,0-4.58-.32c-1,0-1.91,0-2.85.13a29.7,29.7,0,0,0-4,.61,33,33,0,0,0-25.69,27.6,32.64,32.64,0,0,0,1.12,14.11,29.62,29.62,0,0,0,1.51,4,32.9,32.9,0,0,0,25.4,19,33.6,33.6,0,0,0,4.58.32,33,33,0,0,0,32.54-28.34A32.67,32.67,0,0,0,217.43,157.14ZM219.79,181a29,29,0,0,1-28.57,24.9,30.33,30.33,0,0,1-4-.28,28.87,28.87,0,0,1-21.49-15,27.43,27.43,0,0,1-1.76-4A28.66,28.66,0,0,1,162.58,173a29,29,0,0,1,21.72-24,27.88,27.88,0,0,1,4-.7c.94-.09,1.89-.14,2.85-.14A28.88,28.88,0,0,1,219.79,181Z"/><path class="cls-1" d="M191.89,174.87a28.2,28.2,0,0,1-3.59-1.35c-1.7-.84-2.76-1.88-2.76-3.62a3.71,3.71,0,0,1,2.76-3.65,7.58,7.58,0,0,1,2.47-.38,13.73,13.73,0,0,1,7.44,2.61l2.21-2.74a18.09,18.09,0,0,0-7.51-3.21v-5.77H190v5.58a12.21,12.21,0,0,0-1.66.19,8.92,8.92,0,0,0-4,1.72,7.26,7.26,0,0,0-2.72,5.89,6.34,6.34,0,0,0,2.72,5.48,15.58,15.58,0,0,0,4,2c.8.3,1.64.57,2.5.84,4.07,1.27,6.61,2.33,6.61,5.49,0,2.78-2.41,4.39-5.67,4.39a11.11,11.11,0,0,1-3.44-.57,12.81,12.81,0,0,1-4-2.16,13.31,13.31,0,0,1-1.06-.93l-1.55,1.85-.76.91a16,16,0,0,0,4.53,3.09,15,15,0,0,0,4.5,1.24v5.38h2.95V191.8c5.36-.43,8.52-3.59,8.52-8.09h0C201.43,178,197.32,176.6,191.89,174.87Z"/></g></g></svg>