<svg xmlns="http://www.w3.org/2000/svg" viewBox="0 0 256 256"><defs><style>.cls-1{fill:#1d384d;}</style></defs><title>transfer</title><g id="icons_without_caption" data-name="icons without caption"><g id="TRANSFER"><path class="cls-1" d="M157.71,106V62.09A14.73,14.73,0,0,0,143,47.37H76.51A14.73,14.73,0,0,0,61.79,62.09V193.91a14.73,14.73,0,0,0,14.72,14.72H143a14.73,14.73,0,0,0,14.72-14.72V113.52l-4-2.23v82.62A10.73,10.73,0,0,1,143,204.63H76.51a10.73,10.73,0,0,1-10.72-10.72V62.09A10.73,10.73,0,0,1,76.51,51.37H143a10.73,10.73,0,0,1,10.72,10.72v45.68Z"/><rect class="cls-1" x="102.9" y="57.27" width="13.71" height="4"/><path class="cls-1" d="M115.36,185.46H104.14a7.06,7.06,0,0,0,0,14.11h11.22a7.06,7.06,0,1,0,0-14.11Zm0,10.11H104.14a3.06,3.06,0,0,1,0-6.11h11.22a3.06,3.06,0,1,1,0,6.11Z"/><path class="cls-1" d="M143.27,71h0V67H76.21V179.5h67.08v-4h0Zm-4,104.53H80.21V71h59.06Z"/><path class="cls-1" d="M110.55,124.37c-4.14-1.36-7.14-2.5-7.14-5.6,0-2.91,2.42-4.53,5.88-4.53a15.4,15.4,0,0,1,8.36,2.93l2.49-3.07a20.24,20.24,0,0,0-8.45-3.61V104h-3.32v6.28c-6.05.29-9.42,3.95-9.42,8.77,0,5.91,4.94,7.6,10.37,9.35,4.57,1.43,7.43,2.61,7.43,6.17,0,3.13-2.71,4.95-6.37,4.95a14.11,14.11,0,0,1-9.57-4.12l-2.59,3.1a17.32,17.32,0,0,0,10.15,4.87v6.05h3.32v-6c6-.49,9.59-4.05,9.59-9.11C121.28,127.93,116.66,126.3,110.55,124.37Z"/><path class="cls-1" d="M214.77,80.39l-3.56-2.23-.36-.22-53.14,23.67-4,1.78L143.27,108l-2,.89,2,1.12,10.44,5.82,4,2.23,3.79,2.11,0,0,1.53.83v18.77l3.7,1.06L175,127.56l12.9,6.95,26.89-54.09Zm-57.06,33.13-4-2.23-3.51-2,3.51-1.56,4-1.79L201.23,86.6l-36.47,30.85ZM167,132.86v-9.64l4.51,2.43ZM186.18,129l-10.91-5.89-6.74-3.64,38.62-32.66Z"/><path class="cls-1" d="M127,84.44l-2.83,2.83,6.56,6.56H61.43a20.24,20.24,0,0,0,0,40.47h29v-4h-29a16.24,16.24,0,0,1,0-32.47h70.83l-8.29,8.3,2.83,2.83,12.37-12.37Z"/></g></g></svg>