<svg xmlns="http://www.w3.org/2000/svg" viewBox="0 0 256 256"><defs><style>.cls-1{fill:#1d384d;}</style></defs><title>unicorn</title><g id="icons_without_caption" data-name="icons without caption"><g id="UNICORN"><path class="cls-1" d="M141.84,68.77l-5.66,17.38q-1.35-.09-2.73-.09c-.49,0-1,0-1.46,0l4.37-13.43a59.57,59.57,0,0,0-13.59,2.46l-1.71-2.69L119.36,75s-.4.61-1,1.61c-12.06,4.54-27.22,14.19-39.52,34.63a210.79,210.79,0,0,0-25,65.17H69.4c-.34,1.37-.66,2.7-1,4H49.14l.35-2.3a212.42,212.42,0,0,1,26-68.93c23.23-38.6,56.5-40.56,62.94-40.56.55,0,.85,0,.85,0Z"/><path class="cls-1" d="M142.34,91h0l.42.09Zm28.54-39.78L142,86.87a40.22,40.22,0,0,1,12.92,5A44.93,44.93,0,0,1,163,98.27l.81.74L174.39,53ZM160.49,95.81a38,38,0,0,0-5.41-4l6.76-1.92Zm2.36-10.34-13,3.71a36.09,36.09,0,0,0-3.53-1.26l3.2-3.94h0l14.67-4.17Zm2.32-10.13h0l-11.31,3.22h0l5.24-6.45L166.38,70Zm2.23-9.78-3.89,1.12,5.06-6.23Z"/><path class="cls-1" d="M163.86,99l-.81-.74a44.93,44.93,0,0,0-8.16-6.37,40.22,40.22,0,0,0-12.92-5,42.07,42.07,0,0,0-5.79-.73q-1.35-.09-2.73-.09c-.49,0-1,0-1.46,0-.72,0-1.44.07-2.15.15l-7.07-11.12-1.71-2.69L119.36,75s-.4.61-1,1.61a38.8,38.8,0,0,0-4.85,15.59A34.21,34.21,0,0,0,110,95c-21.45,16.29-34.14,55.14-40.55,81.42-.34,1.37-.66,2.7-1,4-2.84,12.24-4.19,21-4.35,22.07l-.35,2.29h81.42l-.45-2.37c-6.17-32.48,1.89-52.34,4.39-57.48l49.65,14.47,8.11-21.08Zm32.49,55.5L147.2,140.18l-.18.29a27.48,27.48,0,0,1-34-3.41,26.94,26.94,0,0,1-5.62-7.79L104.83,133A31.48,31.48,0,0,0,144,146.53c-3.33,8.28-8.41,26.6-3.63,54.23H68.42c.64-3.72,6.32-28.9,7.41-32.84,6.64-24,17.82-54,34.69-68.26l.06.12,2-1.74c.39-.34.78-.68,1.18-1a19.78,19.78,0,0,0,4.28,9.87,21.55,21.55,0,0,0,2.83,2.93l0,0,2.6-3a3.48,3.48,0,0,1-.35-.32,16.87,16.87,0,0,1-2.73-3.08,16.59,16.59,0,0,1-3-9,22.45,22.45,0,0,1,.32-4.73A34.15,34.15,0,0,1,121.11,80l4.44,7,2.3,3.61.69,1.09,2.33,3.66,2.74,4.32L137,97.47l-3.65-5.74-1.05-1.66,1.17,0h1a39.21,39.21,0,0,1,7.85,1l.42.1.25.06A37.42,37.42,0,0,1,160.1,101l.12.12.07.07,41.86,38.24Z"/><polygon class="cls-1" points="187.07 165.51 187.07 169.51 194.93 169.51 179.12 185.11 168.5 172.74 150.67 190.06 153.46 192.93 168.24 178.57 178.87 190.98 198.84 171.26 198.84 180.82 202.84 180.82 202.84 165.51 187.07 165.51"/></g></g></svg>