<svg xmlns="http://www.w3.org/2000/svg" viewBox="0 0 256 256"><defs><style>.cls-1{fill:#1d384d;}</style></defs><title>value</title><g id="icons_without_caption" data-name="icons without caption"><g id="VALUE"><path class="cls-1" d="M191.44,81.84H64.56L47.66,114.46,128,210l80.34-95.5ZM155,116.19,128,200.3l-27-84.11Zm-20.26-4,30-24.57,32.87,24.57Zm-6.32,0h-.53L95.64,85.84h65Zm-6.85,0H58.63L91.5,87.62Zm-24.72,4L123,197.79,54.34,116.19Zm62.35,0h42.49L133,197.79Zm42.45-6L169.06,85.84H189ZM67,85.84H87.2l-33,24.66Z"/><rect class="cls-1" x="126" y="46.04" width="4" height="22.71"/><rect class="cls-1" x="48.05" y="49.87" width="4" height="22.14" transform="translate(-28.43 53.23) rotate(-45)"/><rect class="cls-1" x="194.89" y="58.93" width="22.14" height="4" transform="translate(17.24 163.48) rotate(-45)"/></g></g></svg>